<?xml version="1.0" standalone="no"?>
<!DOCTYPE svg PUBLIC "-//W3C//DTD SVG 20010904//EN"
 "http://www.w3.org/TR/2001/REC-SVG-20010904/DTD/svg10.dtd">
<svg version="1.0" xmlns="http://www.w3.org/2000/svg"
 width="5209.000000pt" height="3335.000000pt" viewBox="0 0 5209.000000 3335.000000"
 preserveAspectRatio="xMidYMid meet">

<g transform="translate(0.000000,3335.000000) scale(0.100000,-0.100000)"
fill="#000000" stroke="none">
<path d="M15715 27372 c-55 -13 -109 -28 -120 -32 -11 -5 -45 -16 -75 -25 -30
-9 -62 -20 -70 -24 -9 -5 -30 -12 -49 -16 -18 -4 -44 -13 -59 -21 -15 -8 -34
-14 -43 -14 -8 0 -19 -4 -25 -8 -5 -5 -25 -15 -44 -22 -71 -27 -227 -104 -278
-136 -29 -19 -55 -34 -57 -34 -3 0 -26 -16 -52 -36 -178 -134 -326 -336 -391
-529 -50 -148 -57 -195 -57 -355 0 -85 4 -164 9 -175 5 -11 11 -30 12 -43 3
-21 16 -68 45 -159 9 -28 7 -38 -15 -70 -15 -21 -26 -41 -26 -46 0 -4 -22 -53
-48 -110 -27 -56 -62 -131 -77 -167 -15 -36 -50 -117 -77 -180 -28 -63 -58
-135 -68 -160 -9 -25 -36 -92 -59 -150 -24 -58 -56 -141 -73 -185 -17 -44 -34
-89 -39 -100 -28 -69 -79 -206 -79 -213 0 -8 -10 -36 -50 -137 -12 -31 -87
-245 -101 -290 -7 -22 -25 -76 -40 -120 -15 -44 -30 -91 -34 -105 -4 -14 -27
-89 -52 -168 -56 -179 -117 -392 -199 -697 -36 -137 -52 -199 -109 -435 -35
-147 -40 -168 -69 -320 -10 -47 -21 -98 -26 -115 -6 -16 -19 -79 -31 -140 -11
-60 -29 -157 -41 -215 -11 -58 -23 -127 -28 -155 -58 -357 -73 -450 -81 -505
-4 -36 -13 -101 -19 -145 -70 -512 -115 -1080 -125 -1555 -3 -151 -8 -287 -10
-302 l-4 -28 98 0 98 0 7 343 c12 611 65 1234 156 1857 43 291 89 571 99 605
5 17 15 64 22 105 20 129 106 535 143 680 8 30 26 107 41 170 14 63 32 135 40
160 7 25 35 126 61 225 55 209 135 487 185 640 11 33 44 134 74 225 30 91 79
237 110 325 31 88 62 178 70 200 16 48 113 304 150 395 31 75 55 134 84 208
30 75 125 299 151 357 13 28 36 79 52 115 17 36 34 75 39 87 6 16 22 24 65 33
61 13 252 78 319 109 22 10 65 29 95 41 30 13 62 29 70 36 8 6 35 22 60 34
126 63 313 225 381 330 160 245 261 621 276 1018 4 101 2 171 -3 171 -5 -1
-54 -13 -109 -27z"/>
<path d="M36260 27263 c0 -180 40 -450 94 -635 77 -266 184 -455 327 -579 76
-67 174 -139 188 -139 5 0 11 -4 13 -9 4 -10 200 -110 279 -142 94 -37 242
-86 299 -99 44 -10 58 -18 69 -39 22 -45 101 -221 143 -321 22 -52 48 -113 58
-135 31 -69 110 -274 110 -285 0 -5 5 -10 10 -10 6 0 10 -6 10 -12 0 -7 19
-60 41 -118 54 -138 226 -619 249 -695 10 -33 41 -127 68 -210 28 -82 62 -190
77 -240 50 -169 66 -220 80 -265 7 -25 17 -61 21 -80 3 -19 9 -39 12 -45 7
-12 77 -279 127 -485 19 -80 39 -161 45 -180 29 -109 97 -426 150 -704 90
-469 178 -1086 214 -1501 9 -99 21 -227 26 -285 5 -58 17 -271 26 -475 19
-434 14 -1144 -10 -1500 -9 -121 -15 -226 -16 -232 0 -10 26 -13 99 -13 l98 0
6 68 c32 352 34 1429 3 1852 -65 893 -153 1504 -347 2420 -18 89 -198 807
-224 895 -14 50 -32 113 -40 140 -39 143 -57 202 -98 335 -25 80 -50 161 -55
180 -9 32 -125 368 -217 630 -20 58 -43 120 -51 138 -9 18 -33 79 -54 135 -62
167 -135 350 -180 452 -5 11 -23 56 -41 100 -17 44 -46 112 -64 150 -18 39
-40 88 -50 110 -10 22 -44 94 -76 161 l-58 120 26 85 c55 183 68 416 29 544
-8 28 -25 84 -37 125 -12 41 -30 86 -39 100 -9 14 -29 50 -45 80 -68 134 -211
291 -342 376 -97 63 -263 148 -379 194 -170 68 -509 170 -563 170 -8 0 -11
-40 -11 -127z"/>
<path d="M12950 27006 c0 -2 -7 -39 -15 -81 -44 -230 -58 -388 -59 -635 0
-261 13 -371 65 -528 32 -96 157 -337 188 -362 3 -3 22 -25 41 -50 67 -88 196
-213 266 -257 10 -7 37 -25 59 -39 101 -67 248 -127 398 -163 124 -29 123 -29
136 27 66 297 72 619 16 874 -53 243 -132 394 -320 613 -50 58 -215 225 -222
225 -2 0 -34 26 -71 58 -37 31 -82 68 -101 82 -18 14 -38 30 -45 36 -19 18
-167 117 -206 138 -19 10 -37 21 -40 25 -16 19 -90 50 -90 37z"/>
<path d="M39105 27001 c-6 -4 -30 -19 -55 -32 -25 -13 -49 -27 -55 -32 -5 -4
-32 -22 -60 -40 -27 -17 -54 -35 -60 -40 -5 -4 -42 -31 -81 -60 -120 -88 -164
-126 -310 -272 -129 -127 -240 -260 -289 -343 -11 -18 -23 -32 -27 -32 -4 0
-8 -5 -8 -11 0 -6 -13 -40 -30 -76 -16 -35 -30 -70 -30 -77 0 -6 -4 -16 -9
-21 -24 -28 -74 -294 -86 -466 -8 -116 17 -414 47 -542 l20 -89 49 6 c78 11
267 72 358 116 167 82 316 203 432 350 33 41 64 80 69 87 6 7 10 15 10 19 0 4
11 21 24 39 48 63 125 240 155 356 59 231 64 573 11 917 -37 247 -45 271 -75
243z"/>
<path d="M15525 25636 c-238 -40 -398 -97 -590 -212 -123 -74 -125 -75 -160
-106 -16 -16 -33 -28 -37 -28 -5 0 -16 -8 -26 -17 -9 -10 -31 -28 -47 -41
-121 -93 -385 -389 -385 -431 0 -5 15 -18 33 -30 17 -11 41 -28 52 -38 35 -33
198 -129 306 -181 338 -163 616 -194 899 -100 65 22 243 107 290 138 14 10 52
34 85 55 55 35 181 126 230 166 149 122 243 208 406 374 114 115 136 145 105
145 -8 0 -16 4 -18 8 -5 13 -159 93 -268 140 -136 58 -328 118 -451 141 -141
27 -322 34 -424 17z"/>
<path d="M36290 25643 c-93 -9 -267 -43 -315 -62 -11 -4 -58 -20 -105 -35 -47
-15 -98 -34 -115 -41 -16 -7 -64 -28 -105 -45 -41 -18 -100 -47 -131 -65 -31
-18 -66 -36 -78 -40 -11 -3 -21 -11 -21 -16 0 -5 -7 -9 -15 -9 -32 0 -11 -29
98 -140 224 -227 352 -339 532 -468 55 -40 105 -76 112 -82 7 -5 15 -10 17
-10 3 0 29 -15 58 -34 111 -70 249 -133 383 -172 81 -24 303 -29 410 -10 217
41 385 112 635 267 30 19 57 36 60 39 3 4 26 21 53 40 26 18 47 38 47 44 -2
30 -207 269 -314 365 -16 14 -41 37 -55 50 -85 77 -258 194 -381 256 -255 131
-535 192 -770 168z"/>
<path d="M12176 25523 c-3 -21 -8 -63 -11 -93 -3 -30 -17 -152 -32 -270 -23
-178 -27 -252 -27 -430 1 -192 4 -228 27 -339 34 -158 55 -219 127 -366 126
-255 301 -438 535 -558 189 -98 426 -142 657 -123 l86 8 15 36 c15 39 32 111
29 125 -1 4 2 16 7 25 8 16 14 52 37 222 12 93 7 307 -11 425 -16 110 -72 308
-111 395 -41 90 -72 150 -106 207 -21 35 -38 67 -38 73 0 5 -4 10 -8 10 -4 0
-26 23 -47 52 -122 160 -321 308 -580 432 -66 31 -128 62 -139 67 -37 21 -370
135 -403 139 -1 0 -4 -17 -7 -37z"/>
<path d="M39885 25555 c-5 -2 -61 -19 -123 -39 -214 -69 -469 -185 -617 -281
-155 -100 -307 -234 -374 -331 -19 -27 -38 -51 -41 -54 -13 -10 -119 -207
-135 -250 -9 -25 -23 -58 -31 -75 -7 -16 -23 -64 -34 -105 -12 -41 -26 -86
-31 -100 -12 -34 -36 -213 -44 -335 -7 -98 13 -332 35 -415 5 -19 17 -66 25
-104 27 -114 26 -113 113 -122 225 -21 478 26 667 124 267 137 483 392 599
706 45 120 72 243 87 401 16 166 5 333 -46 740 -8 66 -15 148 -15 183 0 61 -4
67 -35 57z"/>
<path d="M15199 24246 c-2 -2 -56 -6 -119 -9 -192 -10 -359 -51 -504 -124 -48
-24 -93 -48 -100 -53 -6 -6 -48 -37 -94 -71 -131 -97 -329 -303 -422 -439 -13
-19 -27 -37 -30 -40 -7 -7 -83 -125 -108 -170 -11 -19 -36 -62 -56 -95 l-37
-60 44 -40 c24 -22 53 -46 63 -52 11 -7 35 -23 54 -36 109 -72 333 -162 461
-186 355 -64 763 43 1038 274 51 42 219 213 261 265 19 23 46 57 60 74 48 59
85 111 178 251 51 77 96 145 100 150 13 18 122 211 122 217 0 17 -223 70 -490
118 -84 15 -411 35 -421 26z"/>
<path d="M36671 24239 c-74 -4 -177 -15 -230 -24 -140 -23 -343 -65 -366 -75
-11 -5 -37 -14 -57 -20 -21 -6 -38 -14 -38 -17 0 -19 107 -198 226 -378 174
-262 382 -498 557 -629 166 -125 410 -215 645 -238 241 -23 506 35 725 158 67
39 207 142 213 159 5 12 -23 77 -58 135 -42 68 -133 205 -150 224 -10 11 -18
23 -18 26 0 4 -9 18 -21 31 -42 49 -55 65 -89 109 -57 74 -219 228 -315 299
-89 65 -104 74 -197 124 -62 33 -221 85 -278 92 -25 3 -76 9 -115 14 -111 15
-289 19 -434 10z"/>
<path d="M11266 23993 c-9 -32 -16 -134 -26 -353 -20 -448 25 -895 120 -1190
45 -137 167 -356 272 -485 38 -47 204 -210 246 -242 161 -122 303 -197 488
-256 173 -56 282 -72 491 -72 100 0 184 3 187 6 29 28 47 540 26 709 -5 41
-14 116 -20 165 -11 99 -88 428 -102 433 -4 2 -8 9 -8 15 0 13 -62 169 -70
177 -3 3 -13 21 -22 40 -19 39 -50 92 -58 100 -3 3 -14 18 -24 34 -57 89 -239
266 -388 378 -20 15 -42 34 -50 41 -7 8 -18 16 -23 18 -14 6 -219 141 -225
148 -8 10 -302 161 -376 193 -21 9 -59 26 -84 37 -61 27 -325 121 -340 121 -5
0 -11 -8 -14 -17z"/>
<path d="M40700 23976 c-174 -61 -516 -211 -540 -236 -3 -3 -34 -20 -70 -39
-113 -60 -356 -223 -435 -292 -16 -15 -67 -59 -112 -98 -75 -66 -168 -167
-218 -236 -11 -16 -25 -33 -30 -39 -17 -19 -112 -217 -145 -301 -17 -44 -40
-118 -51 -165 -11 -47 -26 -111 -34 -143 -8 -32 -22 -113 -32 -180 -27 -198
-22 -790 7 -837 4 -7 55 -13 136 -17 194 -8 405 23 598 89 75 26 263 118 321
158 24 17 48 30 54 30 6 0 11 4 11 8 0 4 23 26 52 47 219 167 446 488 520 735
36 121 69 274 90 415 43 304 32 1136 -16 1135 -6 0 -54 -15 -106 -34z"/>
<path d="M14925 22680 c-138 -19 -256 -45 -302 -66 -17 -8 -36 -14 -42 -14 -6
0 -19 -4 -29 -9 -9 -5 -67 -34 -128 -64 -146 -73 -265 -150 -374 -242 -38 -32
-215 -210 -266 -266 -36 -41 -204 -274 -204 -284 0 -4 -8 -19 -19 -33 -18 -27
-121 -202 -121 -208 0 -2 -32 -76 -70 -159 -5 -11 -18 -43 -29 -72 l-20 -52
107 -41 c59 -22 116 -45 128 -49 34 -15 295 -78 364 -90 133 -21 308 -33 395
-26 116 8 264 31 312 49 21 7 67 23 103 36 112 40 277 150 422 281 77 70 248
258 318 349 19 25 37 47 40 50 4 3 37 48 74 100 37 52 74 103 82 113 7 9 14
20 14 24 0 3 10 20 23 37 39 51 146 232 227 381 67 124 80 149 76 152 -6 6
-152 44 -226 59 -41 8 -160 25 -265 39 -225 29 -411 31 -590 5z"/>
<path d="M36585 22679 c-193 -25 -304 -46 -410 -76 -49 -15 -91 -27 -92 -28
-6 -4 142 -270 232 -417 123 -201 300 -443 429 -588 61 -68 226 -231 271 -268
192 -157 386 -248 605 -284 104 -17 362 -14 495 6 188 28 513 119 632 178 l22
11 -20 51 c-35 88 -102 240 -112 254 -16 20 -67 115 -74 135 -3 9 -9 17 -13
17 -4 0 -12 12 -19 28 -12 26 -129 202 -141 212 -3 3 -13 14 -21 26 -54 79
-261 296 -343 359 -70 54 -101 80 -104 88 -2 4 -8 7 -13 7 -6 0 -36 17 -67 38
-127 86 -327 178 -462 212 -25 6 -61 16 -81 21 -155 39 -488 48 -714 18z"/>
<path d="M26100 22362 c-24 -12 -69 -63 -147 -167 -223 -297 -353 -406 -684
-576 -218 -111 -286 -159 -301 -211 -14 -53 -8 -130 15 -171 76 -139 197 -163
372 -74 109 55 272 154 335 204 46 37 180 133 185 133 3 0 5 -369 5 -820 l0
-820 -236 0 c-279 0 -349 -11 -415 -68 -60 -51 -91 -120 -91 -201 0 -147 67
-225 230 -266 53 -14 160 -15 819 -13 719 3 760 4 803 22 130 55 180 127 180
257 0 82 -29 150 -82 193 -18 14 -38 30 -43 34 -37 30 -89 36 -342 40 l-262 4
-3 1151 c-3 1103 -4 1154 -22 1202 -42 110 -115 165 -222 165 -36 0 -72 -7
-94 -18z"/>
<path d="M10675 21658 c34 -335 48 -438 96 -683 41 -213 61 -296 104 -440 15
-49 31 -103 35 -120 26 -97 195 -483 221 -505 3 -3 28 -39 55 -80 58 -89 71
-106 144 -181 129 -132 305 -246 500 -324 36 -14 74 -30 85 -35 35 -16 232
-70 328 -90 112 -23 318 -47 489 -56 l126 -7 7 55 c9 73 -10 358 -35 538 -47
331 -151 652 -289 893 -11 20 -30 53 -42 73 -11 21 -38 64 -60 96 -21 33 -39
61 -39 63 0 2 -15 20 -32 41 -127 146 -186 208 -259 269 -45 39 -91 78 -101
88 -10 9 -20 17 -23 17 -4 0 -33 18 -66 40 -78 52 -208 121 -289 154 -36 15
-73 31 -82 36 -16 9 -108 43 -203 75 -52 17 -211 61 -255 70 -19 4 -41 11 -50
16 -13 7 -192 37 -323 54 l-48 6 6 -63z"/>
<path d="M41330 21710 c-76 -9 -238 -38 -260 -46 -8 -3 -44 -12 -80 -20 -85
-18 -211 -55 -310 -92 -8 -3 -19 -6 -25 -8 -151 -47 -383 -164 -540 -272 -129
-88 -326 -281 -404 -395 -8 -12 -18 -24 -22 -27 -14 -10 -118 -178 -153 -245
-99 -194 -180 -408 -221 -582 -9 -37 -20 -84 -25 -103 -29 -103 -63 -422 -64
-592 -1 -97 2 -179 6 -183 11 -11 361 13 503 34 212 33 598 151 612 188 5 12
-52 102 -100 160 -128 153 -240 254 -390 352 -54 35 -65 46 -56 57 6 8 15 14
20 14 13 0 93 62 179 138 75 66 110 106 202 225 26 34 51 67 56 72 14 17 102
164 102 171 0 3 9 18 19 33 11 15 29 50 39 77 11 27 31 74 45 104 13 30 36 89
51 130 15 41 34 91 41 110 12 31 61 208 69 250 2 8 6 22 9 30 3 8 16 65 27
125 33 164 36 169 46 69 4 -51 12 -106 29 -214 6 -34 31 -160 49 -240 22 -103
95 -305 149 -415 47 -96 129 -227 180 -289 l24 -30 36 110 c108 328 198 777
232 1159 3 39 8 89 12 113 4 32 2 42 -8 41 -8 -1 -43 -5 -79 -9z"/>
<path d="M15325 20926 c-33 -7 -105 -21 -160 -30 -55 -10 -120 -22 -145 -28
-184 -38 -234 -50 -305 -67 -186 -46 -432 -137 -557 -207 -31 -18 -66 -35 -77
-39 -12 -3 -21 -11 -21 -16 0 -5 -5 -9 -11 -9 -13 0 -139 -84 -224 -149 -68
-52 -246 -226 -290 -285 -49 -65 -80 -101 -87 -104 -5 -2 -8 -8 -8 -13 0 -5
-18 -37 -39 -72 -39 -64 -101 -201 -101 -223 0 -7 -4 -14 -8 -16 -5 -1 -20
-61 -35 -133 -37 -176 -36 -384 3 -520 4 -16 11 -42 14 -57 l6 -28 436 0 435
0 87 34 c238 91 446 229 638 422 135 134 209 247 307 464 50 110 130 389 157
545 30 176 64 547 49 544 -2 0 -31 -6 -64 -13z"/>
<path d="M36700 20856 c0 -209 66 -594 141 -826 69 -210 156 -384 264 -528 50
-66 325 -322 347 -322 2 0 41 -24 86 -54 45 -29 95 -59 112 -66 16 -7 30 -16
30 -21 0 -5 5 -9 11 -9 5 0 56 -20 112 -44 96 -41 206 -79 322 -111 134 -36
470 -65 586 -51 55 7 56 8 76 54 25 56 48 147 64 255 25 162 -7 438 -66 572
-7 17 -21 50 -31 75 -30 75 -122 221 -198 315 -71 87 -108 125 -211 214 -55
47 -102 88 -105 91 -3 3 -21 17 -40 30 -19 13 -37 27 -40 30 -32 37 -343 194
-480 243 -268 95 -366 120 -800 202 -193 36 -180 40 -180 -49z"/>
<path d="M10355 19343 c59 -58 157 -133 173 -133 7 0 12 -4 12 -8 0 -4 20 -18
46 -30 49 -24 49 -36 0 -57 -44 -19 -136 -83 -187 -129 l-42 -39 36 -121 c36
-123 136 -401 177 -492 66 -148 163 -333 235 -452 1 -1 35 4 76 13 104 21 263
35 390 35 l109 0 0 133 0 132 -49 28 c-61 34 -115 94 -150 167 -22 48 -26 68
-26 160 0 96 2 110 29 163 56 109 155 186 268 207 28 6 182 10 342 10 l291 0
-35 22 c-87 53 -120 71 -200 109 -47 23 -125 57 -175 76 -49 18 -99 38 -110
43 -29 12 -207 66 -295 89 -251 64 -520 101 -840 116 l-125 6 50 -48z"/>
<path d="M41500 19375 c-303 -21 -500 -55 -523 -90 -7 -11 -28 -54 -46 -95
-18 -41 -37 -84 -42 -95 -15 -32 -49 -137 -60 -180 -5 -22 -13 -49 -18 -60
-10 -21 -55 -217 -71 -300 -21 -119 -40 -231 -40 -240 -1 -35 -20 37 -35 135
-17 112 -98 466 -114 499 -5 9 -23 54 -41 101 -18 47 -37 90 -42 96 -11 15
-90 -16 -263 -102 -140 -70 -197 -107 -288 -186 -57 -49 -157 -147 -157 -154
0 -2 -12 -16 -26 -31 -15 -15 -45 -53 -68 -84 -44 -60 -48 -66 -98 -144 -18
-27 -35 -52 -38 -55 -6 -6 -162 -322 -180 -365 -7 -16 -16 -41 -20 -55 -5 -14
-18 -50 -29 -80 -12 -30 -21 -56 -21 -57 0 -2 357 -3 793 -3 684 0 801 -2 852
-16 68 -17 125 -48 172 -93 18 -17 34 -31 37 -31 7 0 137 177 176 240 19 30
37 57 41 60 8 7 162 324 182 375 8 22 29 74 45 115 63 160 159 462 200 630 32
127 62 260 62 271 0 12 -107 10 -340 -6z"/>
<path d="M14853 19000 c-45 -22 -93 -42 -107 -46 -62 -15 -29 -24 94 -24 120
0 131 1 127 18 -3 9 -8 34 -12 55 -3 20 -9 37 -13 37 -4 0 -44 -18 -89 -40z"/>
<path d="M37122 18943 c-84 -377 -104 -810 -50 -1060 l11 -53 773 0 773 0 -13
38 c-33 90 -129 273 -147 280 -5 2 -9 9 -9 14 0 11 -56 89 -109 153 -54 64
-175 176 -254 234 -45 34 -86 65 -92 69 -78 60 -346 196 -605 308 -74 32 -159
71 -188 86 -29 15 -56 28 -61 28 -4 0 -17 -44 -29 -97z"/>
<path d="M34500 17533 c-46 -18 -68 -78 -46 -122 35 -66 -239 -61 3151 -59
l3077 3 24 28 c16 19 24 40 24 65 0 42 -5 51 -40 75 -23 16 -227 17 -3100 16
-1691 0 -3082 -3 -3090 -6z"/>
<path d="M11320 17388 c19 -13 37 -26 38 -30 8 -19 22 -5 22 22 0 29 -1 30
-47 30 l-48 0 35 -22z"/>
<path d="M40940 17070 l-25 -8 28 -1 c15 -1 27 4 27 9 0 6 -1 10 -2 9 -2 -1
-14 -5 -28 -9z"/>
<path d="M34230 17060 c8 -5 22 -9 30 -9 10 0 8 3 -5 9 -27 12 -43 12 -25 0z"/>
<path d="M40943 17034 c9 -3 17 -15 17 -28 0 -12 2 -25 5 -28 9 -9 4 -1106 -6
-1228 -5 -63 -11 -135 -13 -160 -2 -25 -8 -89 -15 -143 -6 -53 -10 -101 -10
-105 3 -20 -2 -25 -12 -12 -8 12 -9 10 -4 -8 4 -13 2 -28 -3 -35 -5 -7 -6 -21
-1 -32 7 -18 8 -18 8 5 1 18 29 53 102 125 165 163 302 356 438 618 38 72 74
133 80 135 6 2 42 -19 79 -46 149 -111 235 -250 277 -448 17 -81 20 -321 5
-440 -12 -92 -59 -286 -88 -360 -26 -64 -94 -208 -102 -214 -3 -3 -19 -27 -35
-55 -56 -97 -187 -255 -212 -255 -8 0 -42 15 -76 33 -133 72 -413 180 -537
208 -25 5 -54 12 -65 16 -16 5 -18 3 -9 -8 15 -18 -37 -242 -86 -374 -11 -27
-29 -84 -41 -125 -12 -41 -27 -89 -35 -106 -7 -17 -20 -57 -29 -89 -8 -33 -19
-63 -25 -69 -5 -5 -10 -17 -10 -25 0 -9 -11 -38 -25 -66 -14 -27 -28 -67 -31
-87 -4 -21 -9 -38 -13 -38 -3 0 -14 -17 -23 -38 -9 -20 -42 -90 -73 -156 -30
-65 -55 -123 -55 -128 0 -6 -7 -8 -14 -5 -10 4 -13 1 -10 -8 5 -12 -54 -133
-111 -230 -13 -22 -24 -46 -25 -52 0 -16 -36 -53 -51 -53 -8 0 -8 -4 0 -14 10
-12 8 -15 -11 -18 -23 -3 -23 -4 -2 -9 22 -7 213 54 329 104 142 60 300 145
527 282 86 52 412 289 514 374 18 14 51 42 75 61 36 29 187 160 225 195 116
106 166 165 291 340 179 252 306 593 350 939 18 147 12 441 -11 556 -48 229
-135 414 -270 575 -46 55 -70 79 -168 166 -18 16 -77 57 -130 90 -74 47 -95
65 -90 78 3 9 25 56 49 104 47 97 50 107 28 107 -8 0 -23 4 -33 10 -16 9 -198
50 -292 66 -25 4 -52 9 -60 10 -64 12 -254 35 -345 41 -105 8 -109 9 -115 33
-4 15 -14 26 -25 27 -16 1 -17 1 -2 -3z"/>
<path d="M11015 16978 c-215 -16 -385 -41 -600 -90 -119 -26 -155 -38 -155
-48 0 -5 29 -70 65 -145 36 -75 65 -139 65 -142 0 -2 11 -28 24 -56 12 -29 40
-92 60 -142 56 -134 229 -480 280 -560 148 -233 325 -435 491 -560 44 -33 178
-123 210 -141 11 -6 45 -24 75 -41 48 -26 195 -91 240 -106 12 -4 3 34 -36
152 -111 336 -189 639 -239 926 -9 55 -23 132 -31 170 -20 105 -53 389 -65
570 -6 88 -14 174 -18 190 l-7 30 -129 0 c-72 0 -175 -3 -230 -7z"/>
<path d="M33885 16823 c-643 -58 -1100 -326 -1316 -773 -160 -330 -168 -840
-22 -1295 60 -189 196 -452 297 -576 12 -14 32 -41 45 -60 23 -31 270 -281
302 -304 8 -6 41 -31 74 -56 137 -104 327 -216 470 -276 33 -14 78 -33 100
-43 71 -32 286 -98 435 -134 165 -39 580 -99 580 -83 0 3 -22 47 -49 99 -26
52 -51 107 -55 121 -3 15 -11 27 -16 27 -6 0 -10 7 -10 16 0 16 -59 165 -69
174 -13 11 -39 101 -27 90 9 -7 13 -6 13 4 0 9 -20 15 -66 19 -94 8 -462 102
-496 127 -5 4 -28 13 -50 20 -49 15 -242 111 -310 153 -148 92 -341 258 -410
352 -17 22 -33 42 -36 45 -11 9 -115 174 -142 225 -110 212 -166 455 -167 722
0 374 126 598 425 755 127 67 343 122 515 133 52 4 115 8 140 10 25 1 62 3 83
4 l37 1 0 255 0 255 -117 -2 c-65 -1 -136 -3 -158 -5z"/>
<path d="M34696 16695 c-11 -8 -15 -15 -10 -15 6 0 19 7 30 15 10 8 15 14 9
14 -5 0 -19 -6 -29 -14z"/>
<path d="M5375 16648 c-43 -50 -209 -297 -227 -338 -7 -17 -16 -30 -20 -30 -5
0 -8 -4 -8 -9 0 -5 -20 -51 -44 -102 -98 -205 -123 -362 -87 -543 33 -164 75
-258 168 -372 61 -75 94 -105 171 -156 46 -32 62 -48 62 -66 0 -49 118 -490
212 -787 74 -237 221 -664 248 -720 5 -11 28 -69 50 -130 22 -60 52 -133 65
-162 14 -28 25 -54 25 -57 0 -11 127 -308 163 -381 19 -38 47 -99 62 -135 40
-89 272 -554 335 -670 71 -129 88 -159 112 -200 11 -19 30 -53 41 -75 12 -22
24 -42 27 -45 3 -3 30 -48 60 -100 29 -52 72 -124 95 -160 23 -36 50 -81 61
-100 10 -19 23 -39 27 -45 4 -5 76 -113 159 -240 84 -126 155 -232 159 -235 3
-3 35 -45 70 -95 124 -175 397 -522 510 -650 14 -16 68 -79 120 -140 108 -126
153 -177 299 -328 57 -59 108 -114 112 -120 20 -32 1 -22 -69 36 -73 58 -141
109 -181 132 -9 5 -31 20 -49 32 -17 13 -34 23 -37 23 -3 0 -29 15 -58 34 -67
42 -261 135 -353 170 -163 60 -349 91 -504 84 -96 -5 -301 -44 -356 -69 -11
-4 -52 -19 -91 -33 -80 -27 -101 -36 -264 -114 -132 -63 -352 -196 -427 -257
-7 -5 -39 -30 -72 -55 -60 -45 -67 -55 -53 -76 4 -5 68 -55 142 -110 189 -141
336 -238 465 -310 110 -60 136 -73 200 -101 33 -13 74 -31 90 -38 83 -34 118
-46 215 -70 227 -55 496 -36 735 52 251 92 496 299 648 548 20 33 37 66 37 73
0 27 27 7 148 -112 163 -158 206 -199 325 -303 l97 -86 0 -62 c0 -35 7 -82 15
-105 8 -24 13 -45 10 -48 -2 -3 -17 0 -32 6 -83 32 -291 69 -438 78 -144 10
-448 -31 -540 -71 -16 -7 -59 -26 -95 -41 -36 -16 -76 -35 -90 -44 -14 -9 -59
-38 -100 -65 -73 -47 -178 -124 -211 -155 -99 -93 -243 -237 -276 -276 -23
-27 -54 -62 -68 -79 -15 -16 -46 -56 -71 -87 l-44 -57 127 -64 c71 -35 146
-75 168 -87 296 -168 586 -282 805 -315 109 -17 292 -19 395 -5 88 12 247 50
260 61 5 5 16 9 25 9 9 0 65 24 125 54 148 74 303 200 392 321 57 77 52 88 53
-126 l0 -197 -27 -7 c-35 -8 -236 -108 -253 -125 -3 -3 -39 -27 -80 -55 -144
-96 -331 -304 -442 -492 -59 -102 -130 -236 -152 -293 -10 -25 -24 -58 -31
-75 -32 -69 -101 -283 -94 -289 2 -2 114 -9 249 -15 247 -10 538 -3 700 18 41
6 87 11 102 11 l28 0 2 -1428 3 -1427 11378 -3 11377 -2 0 504 c0 326 4 507
10 511 6 3 10 0 10 -7 0 -7 1 -236 3 -508 l2 -495 5248 -3 5247 -2 0 1430 0
1430 28 0 c15 0 88 -7 162 -16 144 -16 621 -20 800 -6 l95 7 -3 35 c-1 19 -7
37 -12 38 -6 2 -10 12 -10 22 0 20 -49 160 -79 225 -10 22 -29 65 -42 95 -13
30 -36 77 -51 103 -15 26 -28 51 -28 56 0 4 -20 37 -45 74 -25 37 -45 70 -45
72 0 3 -38 56 -84 118 -118 158 -246 275 -409 372 -36 22 -67 42 -67 45 0 3
19 13 43 22 23 10 61 36 84 58 l42 41 78 -40 c155 -78 331 -120 539 -128 302
-12 532 52 944 265 102 52 238 122 303 154 l117 60 -82 101 c-90 111 -338 368
-403 416 -37 29 -107 84 -148 117 -9 8 -19 14 -21 14 -2 0 -33 17 -67 39 -35
21 -95 53 -134 70 -38 18 -77 36 -85 40 -24 13 -142 41 -238 57 -336 56 -675
1 -1005 -162 -111 -54 -132 -67 -233 -137 -44 -30 -78 -60 -77 -66 2 -5 -4 -8
-12 -5 -11 5 -15 -1 -15 -21 0 -38 53 -191 99 -288 22 -45 38 -83 37 -85 -2
-1 -170 -1 -375 0 l-372 3 123 84 c112 77 197 137 223 159 6 5 24 17 40 27
118 75 647 494 766 606 8 8 32 29 54 48 75 64 260 236 393 366 127 124 162
151 162 124 0 -11 86 -159 99 -169 3 -3 22 -25 41 -50 55 -72 140 -158 205
-208 33 -26 65 -50 70 -55 84 -70 303 -162 465 -197 88 -18 276 -28 375 -20
310 27 674 202 1135 544 52 39 110 84 128 101 l34 31 -79 59 c-87 67 -230 165
-239 165 -3 0 -24 13 -47 29 -23 15 -71 43 -107 62 -36 18 -66 37 -68 41 -2 4
-8 8 -14 8 -6 0 -51 19 -102 41 -321 145 -605 203 -823 170 -93 -14 -240 -48
-268 -61 -11 -5 -55 -23 -97 -40 -43 -16 -86 -34 -95 -39 -10 -5 -52 -26 -93
-47 -41 -20 -99 -52 -128 -71 -29 -18 -54 -33 -57 -33 -2 0 -30 -18 -62 -40
-32 -22 -66 -46 -77 -53 -27 -18 -89 -64 -106 -80 -39 -35 -93 -70 -84 -55 5
9 59 67 119 130 115 120 242 259 285 311 14 17 59 70 100 117 74 85 122 142
177 210 15 19 30 37 33 40 3 3 28 34 55 70 27 36 52 67 55 70 26 22 470 640
470 654 0 2 33 52 74 113 40 61 87 135 105 164 17 30 50 83 73 119 63 100 239
403 302 520 68 127 307 604 358 715 20 44 53 116 73 160 20 44 68 157 106 250
39 94 74 178 79 187 10 17 62 153 122 313 44 120 167 471 188 540 162 533 250
852 250 911 0 19 37 51 83 72 13 6 89 76 116 106 14 16 34 38 44 48 9 10 17
21 17 24 0 3 11 20 24 37 69 92 136 318 136 456 0 59 -32 211 -60 281 -32 83
-99 220 -131 268 -16 24 -29 45 -29 48 0 2 -22 38 -50 80 -27 41 -50 80 -50
85 0 5 -3 9 -7 9 -5 0 -28 27 -52 60 -51 70 -47 71 -125 -35 -147 -200 -242
-396 -296 -609 -54 -216 6 -460 187 -750 31 -50 67 -102 80 -117 12 -14 23
-32 23 -40 0 -28 -127 -489 -177 -639 -19 -58 -42 -134 -53 -170 -16 -58 -56
-173 -160 -465 -66 -188 -209 -539 -342 -840 -50 -114 -149 -321 -187 -392 -5
-10 -23 -47 -40 -83 -65 -135 -275 -529 -324 -608 -15 -23 -27 -43 -27 -46 0
-8 -244 -404 -319 -516 -42 -63 -78 -119 -80 -125 -2 -5 -7 -12 -10 -15 -5 -4
-68 -95 -96 -139 -13 -20 -130 -183 -170 -237 -16 -22 -39 -53 -50 -68 -11
-16 -31 -43 -45 -60 -14 -17 -46 -58 -70 -91 -25 -33 -47 -62 -51 -65 -3 -3
-12 -14 -20 -26 -14 -21 -34 -46 -157 -193 -77 -92 -190 -226 -217 -256 -140
-157 -216 -237 -430 -450 -245 -245 -305 -303 -454 -435 -41 -36 -79 -69 -85
-75 -6 -5 -40 -35 -76 -65 -36 -30 -81 -70 -100 -87 -19 -18 -38 -33 -42 -33
-4 0 -15 -8 -25 -19 -48 -50 -436 -348 -608 -466 -38 -26 -80 -55 -91 -64 -28
-21 -30 -22 -224 -149 -91 -60 -197 -127 -236 -150 l-70 -42 -297 0 c-237 0
-297 3 -297 13 0 7 5 18 10 23 20 20 101 269 114 349 2 11 6 27 10 35 17 41
35 310 32 480 -4 217 -11 270 -36 270 -29 0 -333 -126 -448 -185 -170 -88
-173 -90 -389 -236 l-24 -16 41 -7 c31 -5 40 -10 36 -21 -3 -9 0 -12 10 -8 14
5 146 -55 152 -69 2 -5 8 -8 14 -8 5 0 38 -21 74 -47 50 -38 63 -52 58 -68 -3
-12 -2 -15 3 -8 12 16 44 -13 71 -65 21 -40 22 -56 22 -237 l0 -195 -3129 0
c-2972 0 -3130 1 -3134 18 -4 16 -5 16 -6 0 -1 -16 -13 -18 -108 -18 -58 0
-103 3 -100 6 3 4 46 26 93 50 89 44 113 45 115 5 0 -10 4 -7 10 8 5 13 7 26
4 29 -3 3 -5 -1 -6 -9 -1 -22 -17 22 -18 49 -1 13 2 21 7 19 4 -3 7 45 7 106
1 124 13 217 27 217 12 0 68 59 68 71 0 5 6 9 14 9 8 0 24 11 37 25 13 13 30
25 37 25 21 0 72 33 72 46 0 7 10 14 23 18 12 3 32 14 44 26 12 11 29 20 38
20 8 0 23 4 33 9 9 5 36 17 59 27 24 11 43 25 43 32 0 7 15 12 40 12 22 0 40
4 40 9 0 5 9 12 19 16 11 3 18 12 15 19 -3 7 5 31 16 52 25 44 88 187 131 297
24 61 41 88 78 120 66 59 610 604 650 652 18 22 54 63 80 90 41 44 175 198
242 279 13 16 29 34 34 40 6 6 56 67 110 136 55 69 102 127 106 130 11 10 286
382 369 499 46 67 87 118 91 113 8 -8 117 -305 148 -402 30 -96 61 -223 55
-231 -2 -4 -28 -15 -57 -24 -161 -53 -385 -163 -655 -324 -29 -17 -57 -31 -62
-31 -4 0 -10 -4 -12 -8 -2 -7 -58 -48 -152 -111 -64 -44 -162 -116 -171 -126
-5 -6 -43 -37 -82 -69 -40 -32 -73 -63 -73 -68 0 -49 259 -332 410 -448 25
-19 47 -37 50 -40 3 -3 19 -15 37 -28 30 -21 35 -21 70 -8 21 8 58 22 81 30
24 9 61 25 83 36 21 11 45 20 54 20 8 0 15 3 15 8 0 4 21 15 48 25 54 22 115
50 122 57 6 6 70 29 70 26 0 -2 -18 -40 -40 -85 -22 -45 -40 -88 -40 -96 0 -8
-4 -15 -8 -15 -4 0 -23 -33 -42 -73 -19 -39 -40 -76 -47 -80 -19 -12 -16 -65
8 -113 17 -35 59 -81 114 -123 27 -20 134 -63 172 -68 24 -3 43 -9 43 -13 0
-4 15 -10 33 -13 17 -3 73 -13 122 -23 180 -33 596 -21 750 22 27 8 73 20 100
27 128 33 275 147 275 215 0 12 5 22 10 22 12 0 13 37 1 44 -10 6 -135 258
-146 294 -3 12 -4 22 -1 22 14 0 102 -46 109 -57 4 -7 16 -13 25 -13 9 0 40
-11 67 -25 28 -13 60 -25 73 -25 12 0 22 -4 22 -9 0 -5 15 -14 33 -21 17 -7
64 -27 102 -45 39 -17 82 -35 98 -39 25 -6 39 -26 17 -26 -5 0 -10 -5 -10 -12
0 -6 7 -4 18 5 10 10 27 17 36 17 20 0 62 21 173 87 40 24 77 43 83 43 5 0 10
3 10 8 0 4 29 23 65 41 36 19 65 39 65 43 0 4 5 8 11 8 6 0 25 10 42 23 18 12
39 27 49 32 59 36 277 190 348 248 9 7 42 32 75 57 74 54 215 170 215 176 0
10 -165 109 -310 187 -41 22 -76 44 -78 49 -2 4 -8 8 -14 8 -16 0 -143 62
-146 72 -2 4 -10 8 -17 8 -8 0 -49 16 -92 36 -139 65 -467 188 -582 220 -30 8
-82 24 -115 35 -34 11 -90 26 -126 34 -212 44 -378 75 -423 78 -59 5 -64 13
-44 72 l14 40 69 -3 c82 -4 227 13 304 35 112 32 353 147 398 190 7 7 17 13
21 13 9 0 129 90 211 158 55 44 301 291 352 353 53 63 178 225 218 284 19 28
38 52 41 55 3 3 38 55 77 115 39 61 75 115 81 122 6 7 11 15 11 19 0 4 14 30
32 58 18 28 52 89 78 136 l45 85 -115 1 c-63 1 -107 -1 -97 -3 25 -6 21 -23
-5 -24 -22 0 -22 -1 -3 -9 11 -5 14 -9 8 -9 -16 -1 -53 -37 -53 -51 0 -5 -4
-10 -10 -10 -5 0 -10 -5 -10 -10 0 -6 -34 -43 -75 -84 -41 -41 -75 -76 -75
-79 0 -8 -154 -159 -220 -216 -30 -27 -61 -47 -68 -45 -7 1 -8 0 -2 -3 15 -7
12 -23 -4 -23 -8 0 -16 -7 -20 -15 -3 -8 -10 -15 -16 -15 -5 0 -18 -8 -29 -17
-48 -46 -92 -83 -98 -83 -3 0 -29 -17 -57 -38 -28 -22 -66 -48 -85 -58 -65
-36 -74 -42 -80 -51 -6 -9 -29 -22 -101 -60 -25 -13 -67 -37 -95 -53 -27 -16
-57 -29 -66 -29 -9 -1 -28 -10 -42 -21 -14 -11 -34 -20 -45 -20 -12 0 -23 -4
-26 -9 -3 -4 -27 -16 -53 -26 -26 -10 -50 -21 -53 -24 -3 -4 -30 -13 -60 -20
-30 -7 -104 -28 -165 -46 -302 -91 -729 -103 -1080 -31 -88 18 -208 50 -260
70 -22 8 -48 15 -57 16 -10 0 -18 7 -18 15 0 8 -4 15 -10 15 -5 0 -10 -7 -10
-15 0 -8 -4 -15 -8 -15 -4 0 -16 -13 -25 -30 -10 -16 -23 -35 -30 -42 -12 -12
-62 -83 -123 -172 -12 -17 -33 -44 -48 -59 -14 -15 -26 -30 -26 -33 0 -5 -45
-67 -72 -99 -9 -11 -77 -94 -150 -185 -147 -182 -161 -198 -232 -279 -27 -31
-62 -72 -79 -91 -76 -88 -265 -289 -410 -436 l-158 -161 -212 -7 c-117 -4
-255 -11 -307 -16 -52 -5 -96 -8 -97 -6 -2 2 6 43 18 92 25 108 36 342 20 459
-6 44 -13 97 -16 117 -18 146 -123 491 -223 733 -27 66 -64 156 -81 200 -18
44 -38 91 -45 105 -8 14 -19 43 -26 65 -7 22 -16 45 -20 50 -4 6 -18 42 -30
80 -29 88 -31 91 -45 72 -6 -9 -36 -42 -66 -75 -30 -33 -61 -68 -69 -78 -8
-11 -36 -44 -61 -74 -89 -107 -201 -264 -325 -455 -21 -33 -75 -132 -120 -220
-113 -221 -171 -371 -221 -576 -24 -102 -27 -133 -28 -289 0 -137 4 -189 18
-238 24 -90 73 -198 118 -262 22 -31 39 -63 39 -72 0 -8 -19 -31 -42 -51 -95
-78 -288 -281 -288 -302 0 -4 -15 -28 -34 -54 -83 -114 -177 -339 -210 -501
-22 -112 -37 -264 -35 -363 1 -48 -2 -91 -5 -95 -10 -9 -406 -15 -406 -6 0 4
17 26 38 49 75 83 100 114 133 167 18 29 36 55 39 58 22 21 101 172 160 305
24 55 100 321 114 400 41 232 46 450 15 675 -30 214 -38 250 -113 498 -33 107
-132 368 -186 487 -9 22 -34 81 -55 130 -21 50 -46 109 -56 132 -11 24 -19 45
-19 48 0 4 -8 25 -18 48 -17 37 -36 87 -74 190 -6 15 -15 27 -20 27 -11 0 -47
-18 -62 -32 -6 -5 -60 -41 -121 -80 -60 -40 -112 -75 -115 -78 -8 -10 -68 -50
-74 -50 -3 0 -6 167 -6 370 l0 370 115 0 c172 0 252 37 310 141 25 46 30 64
29 121 -1 46 -8 80 -24 112 -30 64 -102 123 -165 136 -35 8 -1920 10 -6390 8
l-6340 -3 -52 -33 c-51 -33 -93 -83 -112 -135 -18 -46 -13 -140 8 -188 42 -94
133 -149 256 -155 l70 -3 3 -351 c1 -192 -1 -350 -4 -350 -4 0 -31 18 -59 39
-29 22 -100 69 -159 106 -85 52 -106 62 -106 47 0 -10 -4 -22 -8 -28 -5 -5
-19 -38 -31 -74 -13 -36 -33 -87 -45 -115 -13 -27 -36 -81 -51 -120 -15 -38
-39 -93 -52 -122 -12 -28 -23 -54 -23 -57 0 -3 -11 -29 -24 -58 -14 -29 -37
-84 -52 -123 -14 -38 -32 -83 -40 -100 -38 -87 -137 -397 -150 -470 -3 -22
-11 -48 -16 -57 -5 -10 -20 -98 -34 -195 -22 -156 -25 -202 -21 -368 2 -104 8
-198 12 -207 7 -17 -3 -18 -124 -18 -77 0 -131 4 -131 10 0 11 -148 160 -218
218 -29 24 -52 47 -52 51 0 5 14 26 31 47 41 50 113 203 134 283 22 87 30 268
16 376 -37 283 -152 589 -340 900 -36 61 -70 118 -76 127 -22 36 -109 164
-129 189 -12 14 -32 41 -46 59 -89 119 -275 340 -304 362 -5 3 -22 -32 -38
-79 -16 -47 -35 -95 -43 -106 -8 -12 -15 -28 -15 -37 0 -8 -6 -27 -14 -42 -8
-14 -19 -43 -26 -65 -7 -21 -16 -42 -20 -48 -4 -5 -11 -21 -15 -35 -4 -14 -19
-50 -32 -80 -48 -106 -53 -118 -53 -127 0 -7 -40 -109 -61 -158 -16 -34 -69
-209 -69 -225 0 -9 -4 -20 -9 -25 -8 -9 -36 -125 -62 -255 -16 -76 -22 -150
-26 -307 -5 -180 5 -217 59 -228 18 -4 53 -16 78 -27 25 -11 54 -24 65 -29 11
-5 43 -17 71 -28 205 -79 366 -208 393 -317 6 -24 11 -124 11 -223 l0 -181
-3402 2 -3403 3 -97 37 -98 37 -2 -27 c0 -15 -1 -33 -1 -39 1 -8 -13 -13 -36
-13 -37 0 -37 1 -40 43 -3 54 -52 203 -97 291 -30 60 -138 232 -154 246 -3 3
-21 25 -40 50 -81 104 -301 330 -441 451 -142 123 -154 133 -205 168 -27 19
-51 38 -54 41 -9 11 -84 60 -92 60 -5 0 -8 -5 -8 -12 0 -6 -6 -19 -14 -27 -7
-9 -23 -43 -34 -76 -12 -33 -32 -89 -45 -125 -13 -36 -36 -114 -51 -175 -15
-60 -32 -126 -37 -145 -14 -55 -29 -188 -34 -307 -6 -133 15 -300 50 -402 14
-41 25 -76 25 -77 0 -2 -105 -4 -232 -6 -232 -3 -233 -3 -286 -30 -43 -22 -56
-25 -66 -15 -7 6 -48 44 -91 82 -43 39 -106 95 -139 125 -83 74 -568 559 -642
641 -116 128 -281 318 -351 404 -107 132 -261 328 -295 375 -21 30 -79 109
-127 175 -135 182 -330 474 -476 710 -66 107 -234 395 -248 425 -4 8 -17 31
-28 50 -122 201 -450 875 -560 1150 -17 41 -36 89 -44 105 -7 17 -25 59 -39
95 -15 36 -31 74 -35 85 -11 25 -59 152 -87 228 -8 20 -21 54 -28 75 -111 285
-301 892 -371 1182 l-28 116 40 52 c36 48 104 158 146 237 56 104 102 245 118
358 23 158 -18 341 -126 562 -55 113 -167 291 -226 358 l-34 38 -20 -23z
m18582 -5473 c12 -8 27 -31 33 -50 10 -30 9 -41 -7 -72 -10 -21 -29 -43 -43
-50 -20 -10 -344 -13 -1496 -13 -1660 0 -1531 6 -1604 -78 -26 -31 -43 -63
-50 -95 -6 -29 -10 -250 -10 -573 l0 -526 -29 -29 c-31 -31 -83 -39 -122 -19
-49 26 -49 32 -49 599 0 354 4 548 11 583 32 148 139 270 281 319 50 17 127
18 1558 19 1324 0 1508 -2 1527 -15z m2374 -740 c362 -43 649 -129 964 -288
119 -60 288 -158 305 -177 3 -3 25 -19 50 -35 229 -152 535 -462 702 -711 286
-422 433 -830 489 -1353 15 -140 6 -503 -15 -646 -35 -233 -77 -396 -158 -613
-232 -622 -687 -1146 -1284 -1480 -294 -165 -673 -288 -1024 -334 -135 -17
-563 -17 -685 0 -412 58 -752 173 -1087 366 -259 150 -532 376 -718 596 -30
36 -57 67 -60 70 -3 3 -27 34 -53 70 -27 36 -54 72 -60 80 -7 8 -28 40 -48 70
-241 365 -391 768 -449 1205 -18 137 -24 469 -11 610 57 607 289 1152 690
1620 60 70 271 274 347 335 96 77 300 216 389 265 81 45 241 125 249 125 3 0
29 11 58 24 198 90 552 182 793 205 151 14 479 12 616 -4z m-19008 -1102 c-24
-2 -62 -2 -85 0 -24 2 -5 4 42 4 47 0 66 -2 43 -4z m37520 0 c-24 -2 -62 -2
-85 0 -24 2 -5 4 42 4 47 0 66 -2 43 -4z m-24092 -112 l29 -29 0 -449 c0 -499
2 -478 -69 -502 -28 -9 -40 -8 -70 6 -20 10 -42 29 -48 43 -10 19 -12 127 -11
463 l3 439 33 29 c44 40 93 40 133 0z m-11350 -668 c3 -42 -7 -65 -19 -46 -4
6 -27 23 -52 37 l-45 26 58 0 c47 0 57 -3 58 -17z m3160 -478 c56 -29 66 -107
20 -155 l-28 -30 -1075 0 c-1158 0 -1126 1 -1203 -52 -19 -12 -46 -45 -60 -73
l-25 -50 0 -382 0 -381 -28 -30 c-38 -41 -75 -49 -119 -28 -61 29 -63 44 -63
428 0 371 7 444 47 528 32 65 121 158 183 191 94 48 79 47 1233 48 964 1 1091
-1 1118 -14z m2364 -372 c603 -91 1130 -513 1354 -1082 87 -219 121 -405 121
-656 0 -561 -251 -1059 -706 -1401 -97 -73 -117 -85 -245 -152 -389 -206 -885
-247 -1321 -112 -196 61 -356 143 -524 268 -386 287 -636 720 -695 1205 -17
141 -7 405 20 537 71 339 233 646 467 885 44 44 102 98 129 120 28 22 52 43
55 46 22 26 188 129 285 177 331 165 691 222 1060 165z m17255 -52 c0 -28 -4
-53 -10 -56 -6 -4 -10 15 -10 49 0 31 5 56 10 56 6 0 10 -22 10 -49z m4 -409
c7 -22 0 -62 -14 -76 -7 -7 -10 7 -10 42 0 51 13 69 24 34z m2923 -121 c51
-34 57 -105 14 -153 l-29 -33 -1109 -5 -1108 -5 -47 -32 c-31 -22 -54 -50 -72
-85 -26 -52 -26 -52 -26 -306 0 -277 -5 -308 -56 -331 -46 -21 -83 -14 -121
24 l-35 35 4 282 c4 258 6 288 26 341 52 142 183 252 330 277 26 4 533 7 1127
6 924 -1 1083 -3 1102 -15z m2501 -526 c106 -19 226 -47 232 -55 3 -3 21 -12
40 -19 72 -28 90 -36 90 -43 0 -5 4 -8 10 -8 13 0 144 -80 148 -91 2 -5 9 -9
16 -9 7 0 25 -13 41 -30 16 -16 34 -30 41 -30 15 0 25 -25 18 -47 -5 -15 -4
-16 5 -3 9 13 13 12 31 -8 11 -12 25 -22 30 -22 6 0 10 -6 10 -13 0 -7 14 -26
30 -42 17 -16 30 -34 30 -41 0 -6 7 -17 15 -24 9 -7 14 -19 11 -27 -3 -8 -2
-12 3 -8 14 8 72 -93 122 -212 8 -18 17 -33 20 -33 4 0 9 -15 12 -32 3 -18 15
-77 26 -131 21 -102 30 -324 16 -402 -19 -110 -37 -190 -51 -228 -8 -23 -18
-51 -21 -62 -4 -10 -22 -46 -41 -80 -19 -33 -42 -73 -50 -90 -9 -16 -26 -41
-39 -55 -13 -14 -23 -30 -23 -37 0 -6 -13 -23 -30 -36 -16 -14 -30 -29 -30
-34 0 -7 -169 -173 -177 -173 -1 0 -33 -19 -70 -43 -152 -96 -278 -142 -499
-182 -92 -17 -145 -16 -299 4 -105 14 -180 32 -167 40 6 3 -6 7 -26 7 -47 2
-206 69 -197 84 3 5 -3 6 -13 3 -11 -2 -26 3 -35 11 -8 9 -18 16 -22 16 -3 0
-19 10 -36 22 -27 20 -28 23 -12 30 12 6 10 7 -9 3 -20 -4 -36 3 -64 28 -71
59 -214 210 -214 223 0 3 -17 28 -38 57 -21 29 -53 84 -71 122 -18 39 -37 78
-42 88 -28 53 -73 239 -71 296 1 19 -3 40 -9 48 -8 8 -9 48 -5 120 4 60 7 120
8 136 1 36 9 27 18 -20 l8 -38 1 37 c0 20 -4 48 -10 62 -9 20 -6 42 21 128 32
100 37 113 62 161 60 117 71 135 105 184 13 17 23 34 23 36 0 15 241 257 256
257 2 0 38 20 79 45 57 35 81 44 102 40 22 -4 24 -3 8 3 -18 8 -15 12 25 30
87 39 185 67 325 91 80 14 243 12 333 -4z m-27474 -166 c52 -24 56 -51 56
-372 0 -184 -4 -306 -11 -325 -14 -40 -49 -62 -99 -62 -49 0 -86 31 -95 81 -3
19 -5 168 -3 332 l3 299 33 29 c35 31 73 37 116 18z m22046 -639 c0 -201 0
-371 0 -378 0 -7 -4 -10 -10 -7 -6 4 -10 144 -10 388 0 248 3 378 10 371 6 -6
10 -151 10 -374z m499 -45 c16 -8 34 -28 40 -46 7 -21 11 -137 11 -326 0 -321
-4 -348 -56 -372 -56 -25 -125 0 -144 52 -13 40 -13 604 0 643 20 56 91 80
149 49z"/>
<path d="M37260 6575 c-25 -14 -25 -14 -2 -15 12 0 22 4 22 9 0 6 17 12 38 14
l37 4 -35 1 c-19 1 -46 -5 -60 -13z"/>
<path d="M37483 6583 c15 -2 37 -2 50 0 12 2 0 4 -28 4 -27 0 -38 -2 -22 -4z"/>
<path d="M37178 6563 c7 -3 16 -2 19 1 4 3 -2 6 -13 5 -11 0 -14 -3 -6 -6z"/>
<path d="M37328 6563 c6 -2 18 -2 25 0 6 3 1 5 -13 5 -14 0 -19 -2 -12 -5z"/>
<path d="M37500 6560 c-14 -4 8 -5 50 -2 41 2 77 6 79 8 8 7 -104 2 -129 -6z"/>
<path d="M37025 6520 c-3 -5 -1 -10 4 -10 6 0 11 5 11 10 0 6 -2 10 -4 10 -3
0 -8 -4 -11 -10z"/>
<path d="M36988 6503 c7 -3 16 -2 19 1 4 3 -2 6 -13 5 -11 0 -14 -3 -6 -6z"/>
<path d="M37860 6480 c-20 -6 -21 -8 -5 -8 11 0 29 3 40 8 25 11 -1 11 -35 0z"/>
<path d="M36839 6429 c-11 -7 -11 -9 3 -9 9 0 18 -6 21 -12 2 -7 8 -10 12 -6
13 12 -20 37 -36 27z"/>
<path d="M37225 6420 c-44 -9 -89 -21 -100 -27 -11 -6 -46 -18 -78 -28 -32 -9
-67 -25 -78 -36 -10 -10 -24 -19 -29 -19 -29 0 -157 -93 -208 -152 -8 -9 -21
-14 -28 -11 -8 3 -14 -1 -14 -9 0 -19 -34 -50 -44 -41 -4 4 -5 1 -2 -7 4 -8
-6 -28 -21 -45 -16 -17 -37 -46 -47 -65 -11 -19 -22 -37 -25 -40 -4 -3 -17
-30 -30 -60 -13 -30 -27 -63 -32 -72 -5 -10 -9 -27 -9 -38 0 -11 -4 -20 -9
-20 -30 0 -75 -424 -49 -457 5 -7 7 -16 4 -21 -9 -16 24 -150 55 -218 11 -22
19 -45 19 -52 0 -13 39 -81 57 -100 8 -8 20 -28 27 -45 8 -18 30 -50 50 -71
20 -22 36 -46 36 -53 0 -7 6 -13 13 -13 8 0 34 -19 58 -42 81 -77 150 -136
145 -122 -3 8 0 11 10 7 7 -3 14 -9 14 -13 0 -10 107 -65 145 -74 16 -4 36
-13 43 -19 7 -6 23 -12 35 -13 12 -1 42 -7 67 -13 25 -6 63 -11 85 -12 34 -1
36 -2 15 -9 -30 -9 219 -5 275 5 84 14 185 39 185 46 0 3 13 9 30 12 16 4 49
16 72 27 23 11 46 20 51 20 5 0 28 16 51 35 24 19 47 35 53 35 8 0 38 25 122
103 52 48 128 143 147 182 9 19 20 35 25 35 5 0 9 7 9 15 0 8 8 24 18 35 9 11
25 44 34 73 10 28 16 40 14 25 -2 -16 1 -25 6 -21 6 3 7 19 4 35 -3 17 0 44 8
62 30 68 40 134 41 266 0 123 -18 280 -35 305 -4 6 -17 39 -29 75 -24 71 -40
103 -77 165 -13 22 -27 47 -31 55 -4 8 -17 26 -29 40 -79 90 -93 108 -89 114
3 3 2 4 -1 1 -6 -4 -35 18 -110 86 -12 10 -24 19 -27 19 -4 0 -23 11 -44 26
-86 58 -226 112 -359 138 -104 20 -284 19 -389 -4z m420 -56 c69 -17 167 -55
240 -92 156 -78 320 -242 399 -400 84 -167 111 -297 104 -499 -5 -120 -10
-150 -36 -230 -51 -150 -90 -225 -180 -336 -115 -142 -321 -272 -502 -317
-173 -42 -374 -37 -531 15 -159 53 -284 131 -400 252 -165 170 -254 373 -266
605 -8 160 9 276 59 406 125 323 408 552 753 608 96 16 273 10 360 -12z"/>
<path d="M37426 6145 c4 -8 8 -15 10 -15 2 0 4 7 4 15 0 8 -4 15 -10 15 -5 0
-7 -7 -4 -15z"/>
<path d="M37450 6098 c0 -9 -9 -20 -20 -23 -21 -7 -27 -30 -10 -40 6 -3 10 3
10 14 0 12 6 21 14 21 21 0 30 20 17 33 -8 8 -11 7 -11 -5z"/>
<path d="M37471 6054 c0 -11 3 -14 6 -6 3 7 2 16 -1 19 -3 4 -6 -2 -5 -13z"/>
<path d="M37480 6025 c0 -5 5 -17 10 -25 5 -8 10 -10 10 -5 0 6 -5 17 -10 25
-5 8 -10 11 -10 5z"/>
<path d="M37450 6000 c0 -5 5 -10 10 -10 6 0 10 5 10 10 0 6 -4 10 -10 10 -5
0 -10 -4 -10 -10z"/>
<path d="M37352 5950 c0 -14 2 -19 5 -12 2 6 2 18 0 25 -3 6 -5 1 -5 -13z"/>
<path d="M37163 5913 c26 -2 67 -2 90 0 23 2 2 3 -48 3 -49 0 -68 -1 -42 -3z"/>
<path d="M37533 5913 c9 -2 23 -2 30 0 6 3 -1 5 -18 5 -16 0 -22 -2 -12 -5z"/>
<path d="M37643 5913 c26 -2 67 -2 90 0 23 2 2 3 -48 3 -49 0 -68 -1 -42 -3z"/>
<path d="M37090 5881 c0 -5 7 -12 16 -15 14 -5 15 -4 4 9 -14 17 -20 19 -20 6z"/>
<path d="M37721 5861 c-8 -6 -9 -11 -3 -15 6 -3 14 -1 17 5 9 14 2 20 -14 10z"/>
<path d="M37680 5838 c0 -9 -12 -26 -27 -37 -16 -11 -23 -21 -18 -21 6 0 22
10 37 23 19 17 24 27 17 38 -7 12 -9 11 -9 -3z"/>
<path d="M37239 5610 c-3 -8 1 -22 9 -30 12 -11 16 -12 20 -2 2 7 9 9 14 6 7
-4 8 -2 4 4 -4 6 -13 9 -20 6 -9 -3 -16 2 -18 13 -3 14 -5 15 -9 3z"/>
<path d="M37398 5613 c7 -3 16 -2 19 1 4 3 -2 6 -13 5 -11 0 -14 -3 -6 -6z"/>
<path d="M37465 5610 c3 -5 8 -10 11 -10 2 0 4 5 4 10 0 6 -5 10 -11 10 -5 0
-7 -4 -4 -10z"/>
<path d="M37607 5601 c-3 -14 -1 -18 9 -14 16 6 18 19 5 27 -5 3 -11 -3 -14
-13z"/>
<path d="M37352 5585 c-7 -8 -9 -15 -4 -15 5 0 15 7 22 15 16 19 -1 19 -18 0z"/>
<path d="M37507 5570 c10 -11 22 -20 27 -20 5 0 1 9 -9 20 -10 11 -22 20 -26
20 -5 0 -1 -9 8 -20z"/>
<path d="M37555 5570 c3 -5 10 -10 16 -10 5 0 9 5 9 10 0 6 -7 10 -16 10 -8 0
-12 -4 -9 -10z"/>
<path d="M37015 5560 c-3 -5 1 -10 9 -10 9 0 16 5 16 10 0 6 -4 10 -9 10 -6 0
-13 -4 -16 -10z"/>
<path d="M37220 5544 c0 -8 5 -12 10 -9 6 4 8 11 5 16 -9 14 -15 11 -15 -7z"/>
<path d="M37295 5550 c-3 -5 1 -10 9 -10 9 0 16 5 16 10 0 6 -4 10 -9 10 -6 0
-13 -4 -16 -10z"/>
<path d="M37835 5550 c3 -5 8 -10 11 -10 2 0 4 5 4 10 0 6 -5 10 -11 10 -5 0
-7 -4 -4 -10z"/>
<path d="M37850 5520 c0 -5 5 -10 11 -10 5 0 7 5 4 10 -3 6 -8 10 -11 10 -2 0
-4 -4 -4 -10z"/>
<path d="M37610 5509 c0 -9 3 -18 6 -21 7 -8 44 3 44 13 0 5 -7 6 -16 2 -9 -3
-20 0 -25 8 -7 12 -9 11 -9 -2z"/>
<path d="M37816 5513 c7 -4 14 -17 17 -28 5 -16 5 -15 4 4 -1 14 -9 26 -17 28
-10 3 -11 2 -4 -4z"/>
<path d="M36981 5484 c0 -11 3 -14 6 -6 3 7 2 16 -1 19 -3 4 -6 -2 -5 -13z"/>
<path d="M37200 5496 c0 -9 30 -14 35 -6 4 6 -3 10 -14 10 -12 0 -21 -2 -21
-4z"/>
<path d="M37871 5474 c0 -11 3 -14 6 -6 3 7 2 16 -1 19 -3 4 -6 -2 -5 -13z"/>
<path d="M37787 5460 c-3 -11 -1 -20 4 -20 5 0 9 9 9 20 0 11 -2 20 -4 20 -2
0 -6 -9 -9 -20z"/>
<path d="M36942 5376 c-10 -22 -7 -36 7 -36 3 0 6 14 7 30 1 36 0 37 -14 6z"/>
<path d="M37080 5395 c0 -5 5 -17 10 -25 5 -8 10 -10 10 -5 0 6 -5 17 -10 25
-5 8 -10 11 -10 5z"/>
<path d="M37050 5360 c0 -5 5 -10 10 -10 6 0 10 5 10 10 0 6 -4 10 -10 10 -5
0 -10 -4 -10 -10z"/>
<path d="M37502 5318 c-15 -15 -16 -38 -1 -38 6 0 9 6 6 14 -3 7 0 19 6 25 6
6 9 11 6 11 -3 0 -10 -5 -17 -12z"/>
<path d="M37948 5323 c6 -2 18 -2 25 0 6 3 1 5 -13 5 -14 0 -19 -2 -12 -5z"/>
<path d="M36670 5309 c0 -5 5 -7 10 -4 6 3 10 8 10 11 0 2 -4 4 -10 4 -5 0
-10 -5 -10 -11z"/>
<path d="M37361 5304 c0 -11 3 -14 6 -6 3 7 2 16 -1 19 -3 4 -6 -2 -5 -13z"/>
<path d="M38170 5300 c0 -19 3 -21 12 -12 9 9 9 15 0 24 -9 9 -12 7 -12 -12z"/>
<path d="M37728 5273 c7 -3 16 -2 19 1 4 3 -2 6 -13 5 -11 0 -14 -3 -6 -6z"/>
<path d="M37551 5261 c-8 -5 -9 -11 -3 -15 5 -3 12 1 16 9 6 17 6 18 -13 6z"/>
<path d="M36776 5244 c-11 -7 -16 -17 -13 -21 4 -4 15 1 24 10 22 21 14 30
-11 11z"/>
<path d="M37291 5244 c-7 -8 -11 -17 -9 -20 3 -2 13 5 23 16 10 11 14 20 9 20
-5 -1 -15 -8 -23 -16z"/>
<path d="M37585 5220 c-3 -5 -1 -10 4 -10 6 0 11 5 11 10 0 6 -2 10 -4 10 -3
0 -8 -4 -11 -10z"/>
<path d="M37235 5210 c-3 -5 -2 -10 4 -10 5 0 13 5 16 10 3 6 2 10 -4 10 -5 0
-13 -4 -16 -10z"/>
<path d="M36825 5180 c3 -5 8 -10 11 -10 2 0 4 5 4 10 0 6 -5 10 -11 10 -5 0
-7 -4 -4 -10z"/>
<path d="M37198 5183 c7 -3 16 -2 19 1 4 3 -2 6 -13 5 -11 0 -14 -3 -6 -6z"/>
<path d="M38015 5180 c-8 -13 5 -13 25 0 13 8 13 10 -2 10 -9 0 -20 -4 -23
-10z"/>
<path d="M37130 5125 c0 -8 5 -15 10 -15 6 0 10 7 10 15 0 8 -4 15 -10 15 -5
0 -10 -7 -10 -15z"/>
<path d="M37171 5124 c0 -11 3 -14 6 -6 3 7 2 16 -1 19 -3 4 -6 -2 -5 -13z"/>
<path d="M37671 5094 c0 -11 3 -14 6 -6 3 7 2 16 -1 19 -3 4 -6 -2 -5 -13z"/>
<path d="M36836 5045 c-3 -8 -1 -15 4 -15 6 0 10 7 10 15 0 8 -2 15 -4 15 -2
0 -6 -7 -10 -15z"/>
<path d="M37656 5051 c-4 -7 -5 -15 -2 -18 9 -9 19 4 14 18 -4 11 -6 11 -12 0z"/>
<path d="M38010 5040 c0 -5 5 -10 11 -10 5 0 7 5 4 10 -3 6 -8 10 -11 10 -2 0
-4 -4 -4 -10z"/>
<path d="M36925 5020 c3 -5 8 -10 11 -10 2 0 4 5 4 10 0 6 -5 10 -11 10 -5 0
-7 -4 -4 -10z"/>
<path d="M37880 5006 c19 -13 37 -22 39 -20 7 6 -43 43 -59 44 -8 0 1 -11 20
-24z"/>
<path d="M36861 5004 c0 -11 3 -14 6 -6 3 7 2 16 -1 19 -3 4 -6 -2 -5 -13z"/>
<path d="M37780 5010 c0 -5 5 -10 11 -10 5 0 7 5 4 10 -3 6 -8 10 -11 10 -2 0
-4 -4 -4 -10z"/>
<path d="M37060 5006 c0 -3 9 -10 20 -16 11 -6 20 -8 20 -6 0 3 -9 10 -20 16
-11 6 -20 8 -20 6z"/>
<path d="M38030 4994 c0 -10 5 -26 10 -34 8 -11 9 -7 4 15 -8 37 -14 45 -14
19z"/>
<path d="M36915 4990 c-3 -5 1 -10 9 -10 8 0 18 5 21 10 3 6 -1 10 -9 10 -8 0
-18 -4 -21 -10z"/>
<path d="M37203 4965 c-10 -24 0 -46 14 -31 4 3 0 6 -7 6 -9 0 -7 5 6 14 13
10 16 18 9 25 -7 7 -14 2 -22 -14z"/>
<path d="M37748 4983 c7 -3 16 -2 19 1 4 3 -2 6 -13 5 -11 0 -14 -3 -6 -6z"/>
<path d="M37672 4940 c7 -10 14 -18 15 -16 6 6 -9 36 -18 36 -5 0 -4 -9 3 -20z"/>
<path d="M37970 4946 c0 -2 7 -9 15 -16 9 -7 15 -8 15 -2 0 5 -7 12 -15 16 -8
3 -15 4 -15 2z"/>
<path d="M37155 4930 c3 -5 10 -10 16 -10 5 0 9 5 9 10 0 6 -7 10 -16 10 -8 0
-12 -4 -9 -10z"/>
<path d="M37236 4927 c3 -10 9 -15 12 -12 3 3 0 11 -7 18 -10 9 -11 8 -5 -6z"/>
<path d="M37633 4933 c9 -2 17 -9 17 -14 0 -5 5 -9 11 -9 8 0 8 5 -1 15 -7 8
-20 14 -29 14 -13 -1 -13 -2 2 -6z"/>
<path d="M38035 4930 c3 -5 10 -10 16 -10 5 0 9 5 9 10 0 6 -7 10 -16 10 -8 0
-12 -4 -9 -10z"/>
<path d="M36793 4916 c1 -11 9 -21 17 -23 10 -3 11 -2 4 4 -6 4 -14 15 -17 23
-5 11 -6 9 -4 -4z"/>
<path d="M37210 4900 c0 -5 5 -10 11 -10 5 0 7 5 4 10 -3 6 -8 10 -11 10 -2 0
-4 -4 -4 -10z"/>
<path d="M38040 4900 c-13 -8 -12 -10 3 -10 9 0 17 5 17 10 0 12 -1 12 -20 0z"/>
<path d="M37628 4893 c7 -3 16 -2 19 1 4 3 -2 6 -13 5 -11 0 -14 -3 -6 -6z"/>
<path d="M38015 6400 c-3 -5 1 -10 9 -10 9 0 16 5 16 10 0 6 -4 10 -9 10 -6 0
-13 -4 -16 -10z"/>
<path d="M37835 6380 c3 -5 8 -10 11 -10 2 0 4 5 4 10 0 6 -5 10 -11 10 -5 0
-7 -4 -4 -10z"/>
<path d="M36610 6250 c0 -5 5 -10 10 -10 6 0 10 5 10 10 0 6 -4 10 -10 10 -5
0 -10 -4 -10 -10z"/>
<path d="M38131 6216 c-7 -8 -8 -17 -3 -19 4 -3 13 3 20 14 14 22 0 26 -17 5z"/>
<path d="M38350 6125 c0 -8 4 -15 10 -15 5 0 7 7 4 15 -4 8 -8 15 -10 15 -2 0
-4 -7 -4 -15z"/>
<path d="M36470 6001 c0 -6 4 -13 10 -16 6 -3 7 1 4 9 -7 18 -14 21 -14 7z"/>
<path d="M36370 5916 c0 -2 7 -7 16 -10 8 -3 12 -2 9 4 -6 10 -25 14 -25 6z"/>
<path d="M36490 5899 c0 -5 5 -7 10 -4 6 3 10 8 10 11 0 2 -4 4 -10 4 -5 0
-10 -5 -10 -11z"/>
<path d="M36305 5745 c-3 -8 -7 -22 -10 -30 -2 -8 -1 -15 4 -15 5 0 11 14 13
30 5 32 1 40 -7 15z"/>
<path d="M38566 5673 c-6 -14 -5 -15 5 -6 7 7 10 15 7 18 -3 3 -9 -2 -12 -12z"/>
<path d="M36282 5655 c0 -16 2 -22 5 -12 2 9 2 23 0 30 -3 6 -5 -1 -5 -18z"/>
<path d="M38571 5593 c-1 -24 1 -43 3 -43 8 0 12 48 5 66 -5 13 -8 7 -8 -23z"/>
<path d="M38461 5604 c0 -11 3 -14 6 -6 3 7 2 16 -1 19 -3 4 -6 -2 -5 -13z"/>
<path d="M36401 5584 c0 -11 3 -14 6 -6 3 7 2 16 -1 19 -3 4 -6 -2 -5 -13z"/>
<path d="M36302 5530 c0 -14 2 -19 5 -12 2 6 2 18 0 25 -3 6 -5 1 -5 -13z"/>
<path d="M38591 5524 c0 -11 3 -14 6 -6 3 7 2 16 -1 19 -3 4 -6 -2 -5 -13z"/>
<path d="M38463 5430 c0 -47 2 -66 4 -42 2 23 2 61 0 85 -2 23 -4 4 -4 -43z"/>
<path d="M36403 5430 c0 -25 2 -35 4 -22 2 12 2 32 0 45 -2 12 -4 2 -4 -23z"/>
<path d="M38562 5405 c0 -16 2 -22 5 -12 2 9 2 23 0 30 -3 6 -5 -1 -5 -18z"/>
<path d="M38592 5325 c0 -16 2 -22 5 -12 2 9 2 23 0 30 -3 6 -5 -1 -5 -18z"/>
<path d="M38573 5265 c0 -27 2 -38 4 -22 2 15 2 37 0 50 -2 12 -4 0 -4 -28z"/>
<path d="M36270 5259 c0 -5 5 -7 10 -4 6 3 10 8 10 11 0 2 -4 4 -10 4 -5 0
-10 -5 -10 -11z"/>
<path d="M36311 5254 c0 -11 3 -14 6 -6 3 7 2 16 -1 19 -3 4 -6 -2 -5 -13z"/>
<path d="M38461 5254 c0 -11 3 -14 6 -6 3 7 2 16 -1 19 -3 4 -6 -2 -5 -13z"/>
<path d="M36302 5170 c0 -14 2 -19 5 -12 2 6 2 18 0 25 -3 6 -5 1 -5 -13z"/>
<path d="M38471 5174 c0 -11 3 -14 6 -6 3 7 2 16 -1 19 -3 4 -6 -2 -5 -13z"/>
<path d="M38562 5130 c0 -14 2 -19 5 -12 2 6 2 18 0 25 -3 6 -5 1 -5 -13z"/>
<path d="M38491 5014 c0 -11 3 -14 6 -6 3 7 2 16 -1 19 -3 4 -6 -2 -5 -13z"/>
<path d="M36348 4999 c6 -7 12 -24 12 -37 0 -13 4 -21 9 -18 13 9 -2 59 -20
64 -11 4 -12 2 -1 -9z"/>
<path d="M36391 4984 c0 -11 3 -14 6 -6 3 7 2 16 -1 19 -3 4 -6 -2 -5 -13z"/>
<path d="M38500 4970 c0 -11 2 -20 4 -20 2 0 6 9 9 20 3 11 1 20 -4 20 -5 0
-9 -9 -9 -20z"/>
<path d="M36400 4850 c0 -5 5 -10 11 -10 5 0 7 5 4 10 -3 6 -8 10 -11 10 -2 0
-4 -4 -4 -10z"/>
<path d="M36441 4814 c0 -11 3 -14 6 -6 3 7 2 16 -1 19 -3 4 -6 -2 -5 -13z"/>
<path d="M38406 4793 c-6 -14 -5 -15 5 -6 7 7 10 15 7 18 -3 3 -9 -2 -12 -12z"/>
<path d="M38344 4728 c2 -15 -2 -29 -8 -31 -6 -2 -8 -7 -5 -11 13 -13 26 19
18 44 -9 25 -9 25 -5 -2z"/>
<path d="M36525 4700 c4 -6 11 -8 16 -5 14 9 11 15 -7 15 -8 0 -12 -5 -9 -10z"/>
<path d="M36721 4644 c0 -11 3 -14 6 -6 3 7 2 16 -1 19 -3 4 -6 -2 -5 -13z"/>
<path d="M38130 4651 c0 -5 7 -11 14 -14 10 -4 13 -1 9 9 -6 15 -23 19 -23 5z"/>
<path d="M37998 4553 c7 -3 16 -2 19 1 4 3 -2 6 -13 5 -11 0 -14 -3 -6 -6z"/>
<path d="M36660 4543 c8 -3 25 -15 38 -26 12 -11 22 -15 22 -9 0 14 -40 42
-60 41 -13 0 -13 -1 0 -6z"/>
<path d="M38028 4463 c7 -3 16 -2 19 1 4 3 -2 6 -13 5 -11 0 -14 -3 -6 -6z"/>
<path d="M38020 4430 c0 -5 7 -7 15 -4 8 4 15 8 15 10 0 2 -7 4 -15 4 -8 0
-15 -4 -15 -10z"/>
<path d="M37178 4403 c7 -3 16 -2 19 1 4 3 -2 6 -13 5 -11 0 -14 -3 -6 -6z"/>
<path d="M37498 4393 c7 -3 16 -2 19 1 4 3 -2 6 -13 5 -11 0 -14 -3 -6 -6z"/>
<path d="M36925 4380 c3 -5 8 -10 11 -10 2 0 4 5 4 10 0 6 -5 10 -11 10 -5 0
-7 -4 -4 -10z"/>
<path d="M37924 4374 c-19 -15 -19 -15 1 -6 11 5 27 12 35 15 13 5 13 6 -1 6
-8 1 -24 -6 -35 -15z"/>
<path d="M37840 4350 c0 -5 5 -10 10 -10 6 0 10 5 10 10 0 6 -4 10 -10 10 -5
0 -10 -4 -10 -10z"/>
<path d="M37005 4340 c3 -5 13 -10 21 -10 8 0 14 5 14 10 0 6 -9 10 -21 10
-11 0 -17 -4 -14 -10z"/>
<path d="M37140 4290 c20 -13 43 -13 35 0 -3 6 -16 10 -28 10 -18 0 -19 -2 -7
-10z"/>
<path d="M37258 4293 c7 -3 16 -2 19 1 4 3 -2 6 -13 5 -11 0 -14 -3 -6 -6z"/>
<path d="M37560 4290 l-45 -7 40 -1 c22 0 49 3 60 8 23 10 9 10 -55 0z"/>
<path d="M37265 4270 c-13 -6 -15 -9 -5 -9 8 0 22 4 30 9 18 12 2 12 -25 0z"/>
<path d="M37520 4260 c0 -5 10 -10 23 -10 18 0 19 2 7 10 -19 13 -30 13 -30 0z"/>
<path d="M14615 16664 c-104 -15 -250 -76 -330 -138 -82 -64 -144 -147 -190
-256 -33 -76 -45 -213 -25 -274 18 -57 79 -96 147 -96 109 0 152 48 225 249
28 78 103 165 174 201 43 22 62 25 154 25 86 0 113 -4 151 -21 61 -28 126 -96
156 -164 23 -49 25 -64 21 -148 -5 -81 -10 -101 -42 -165 -55 -107 -169 -233
-291 -318 -174 -122 -588 -521 -647 -624 -105 -183 -86 -309 57 -376 38 -18
73 -19 633 -19 652 0 627 -2 688 61 27 28 29 36 29 105 0 75 0 75 -41 114 -61
57 -90 60 -540 60 l-395 0 16 30 c26 50 201 218 380 365 327 268 385 329 479
497 97 175 99 401 4 581 -43 81 -155 193 -237 236 -109 58 -184 73 -376 76
-93 2 -183 1 -200 -1z"/>
<path d="M34745 16660 c3 -5 10 -10 16 -10 5 0 9 5 9 10 0 6 -7 10 -16 10 -8
0 -12 -4 -9 -10z"/>
<path d="M34698 16653 c7 -3 16 -2 19 1 4 3 -2 6 -13 5 -11 0 -14 -3 -6 -6z"/>
<path d="M34806 16622 c6 -4 16 -16 22 -27 8 -15 11 -16 12 -4 0 17 -19 39
-34 39 -8 0 -7 -3 0 -8z"/>
<path d="M34563 16595 c-3 -9 -3 -18 -1 -21 3 -3 8 4 11 16 6 23 -1 27 -10 5z"/>
<path d="M37178 16543 c6 -2 18 -2 25 0 6 3 1 5 -13 5 -14 0 -19 -2 -12 -5z"/>
<path d="M37315 16540 c-77 -7 -281 -47 -305 -60 -9 -4 -31 -11 -50 -15 -19
-4 -39 -11 -45 -15 -5 -5 -29 -13 -52 -19 -23 -6 -49 -18 -57 -26 -8 -8 -23
-15 -33 -15 -10 0 -45 -14 -78 -30 -33 -16 -66 -30 -72 -30 -7 0 -13 -4 -13
-8 0 -4 -29 -23 -65 -42 -36 -19 -65 -38 -65 -42 0 -4 -5 -8 -11 -8 -10 0 -86
-50 -115 -75 -7 -5 -24 -19 -40 -30 -15 -11 -39 -30 -52 -43 -17 -15 -32 -20
-46 -17 -17 5 -18 4 -6 -4 13 -9 9 -16 -22 -46 -21 -20 -42 -34 -48 -30 -6 4
-9 1 -8 -7 2 -7 -4 -12 -13 -12 -9 1 -16 -6 -15 -15 0 -9 -5 -15 -12 -13 -8 1
-11 -2 -7 -9 4 -6 -1 -19 -11 -28 -11 -10 -37 -39 -59 -66 -22 -26 -45 -52
-51 -59 -49 -52 -204 -304 -204 -331 0 -8 -4 -15 -8 -15 -9 0 -20 -20 -52 -95
-12 -27 -25 -59 -30 -70 -20 -48 -70 -207 -70 -225 0 -11 -4 -28 -9 -38 -20
-37 -41 -164 -50 -312 -15 -223 -19 -337 -10 -314 5 12 8 -5 9 -46 4 -176 87
-489 175 -663 14 -27 25 -55 25 -63 0 -8 4 -14 8 -14 4 0 13 -12 19 -27 13
-32 55 -105 64 -113 3 -3 12 -17 20 -31 12 -23 61 -96 109 -163 64 -89 322
-339 386 -374 13 -7 24 -17 24 -22 0 -6 4 -10 10 -10 5 0 31 -15 57 -34 27
-18 71 -46 98 -61 28 -15 54 -31 59 -36 6 -5 18 -9 28 -9 10 0 18 -4 18 -9 0
-4 24 -19 53 -31 48 -21 50 -23 27 -30 -18 -5 -9 -7 28 -7 29 1 56 -3 60 -9 7
-9 157 -61 237 -82 22 -6 58 -15 80 -21 114 -29 239 -41 445 -41 213 0 225 1
478 47 17 3 32 9 32 13 0 4 26 11 58 15 31 4 62 10 67 14 6 5 34 16 63 26 28
11 52 23 52 27 0 4 13 8 29 8 25 0 147 54 161 71 3 4 15 9 27 13 19 6 22 4 17
-11 -5 -14 -4 -15 4 -4 6 8 8 19 6 25 -2 6 9 17 26 24 17 8 36 19 43 25 7 7
30 21 52 32 41 21 145 96 205 149 62 56 214 210 250 255 125 155 152 194 187
261 21 41 44 81 51 88 6 7 12 17 12 22 0 5 20 52 45 104 39 83 55 126 95 252
27 85 53 222 66 344 22 217 28 350 17 350 -6 0 -13 48 -17 111 -7 127 -49 309
-105 468 -53 147 -114 281 -142 314 -9 10 -25 35 -35 55 -11 20 -36 60 -56 89
-21 29 -38 54 -38 57 0 5 -39 50 -102 119 -26 29 -48 55 -48 60 0 4 -7 7 -15
7 -8 0 -15 6 -15 13 0 16 -52 67 -68 67 -7 0 -12 4 -12 9 0 12 -59 71 -71 71
-5 0 -9 4 -9 9 0 5 -44 41 -97 80 -54 39 -103 74 -109 78 -30 23 -255 138
-314 162 -19 7 -48 19 -65 26 -97 42 -291 91 -455 115 -66 10 -426 10 -525 0z
m590 -126 c88 -14 169 -29 180 -34 42 -19 200 -70 217 -70 10 0 18 -4 18 -8 0
-9 133 -72 151 -72 5 0 9 -3 9 -8 0 -4 17 -16 38 -27 20 -11 51 -30 68 -42 17
-13 34 -23 38 -23 4 0 51 -33 104 -72 108 -81 291 -258 342 -330 18 -26 39
-49 46 -52 8 -3 14 -10 14 -15 0 -5 27 -50 60 -100 62 -92 150 -256 150 -278
0 -7 5 -13 10 -13 6 0 10 -7 10 -15 0 -8 6 -29 14 -47 27 -64 65 -194 91 -318
21 -101 28 -161 32 -310 3 -102 0 -223 -5 -270 -11 -98 -53 -313 -61 -320 -6
-5 -33 -87 -64 -195 -6 -22 -14 -42 -18 -45 -11 -8 -69 -131 -69 -145 0 -7 -4
-15 -9 -17 -4 -2 -33 -44 -64 -94 -31 -50 -63 -97 -72 -104 -8 -7 -15 -19 -15
-26 0 -8 -7 -14 -15 -14 -8 0 -14 -3 -13 -7 5 -14 -30 -55 -41 -49 -6 4 -9 1
-6 -6 6 -14 -64 -95 -78 -90 -5 1 -6 -2 -3 -7 6 -9 -133 -141 -203 -193 -23
-16 -41 -34 -41 -39 0 -5 -5 -9 -12 -9 -6 0 -25 -10 -42 -23 -47 -36 -173
-107 -188 -107 -7 0 -22 -9 -32 -21 -11 -13 -25 -19 -37 -16 -10 3 -16 1 -13
-4 3 -5 -3 -12 -13 -15 -10 -4 -45 -19 -79 -35 -33 -16 -69 -29 -80 -29 -11 0
-24 -4 -30 -9 -5 -5 -36 -16 -69 -25 -33 -10 -73 -21 -90 -26 -79 -23 -257
-47 -400 -54 -129 -7 -471 28 -530 54 -11 4 -67 23 -125 40 -58 17 -142 49
-187 71 -44 21 -84 39 -87 39 -4 0 -35 18 -70 40 -35 22 -66 40 -70 40 -3 0
-34 19 -67 43 -33 23 -68 47 -77 52 -9 6 -30 22 -47 37 -16 16 -33 28 -37 28
-8 0 -258 249 -258 257 0 5 -60 84 -70 93 -4 3 -15 21 -26 40 -21 38 -31 53
-55 78 -19 21 -149 286 -149 305 0 7 -4 17 -9 23 -13 14 -71 198 -71 226 0 10
-4 18 -8 18 -5 0 -14 42 -20 93 -7 50 -17 117 -22 147 -14 86 -12 328 4 421 8
46 17 112 21 147 3 35 10 73 15 85 5 12 16 49 25 82 21 74 33 108 55 160 10
22 30 72 46 110 15 39 31 72 35 75 3 3 21 34 40 70 18 36 35 67 39 70 3 3 18
24 33 48 15 24 37 51 47 60 11 9 20 21 20 26 0 5 11 24 25 42 14 18 25 37 25
42 0 6 10 8 23 5 13 -3 18 -2 10 4 -19 14 48 85 73 77 15 -5 16 -4 4 4 -12 9
-12 14 5 32 10 11 24 19 31 16 6 -2 11 3 10 12 -1 12 6 16 24 15 14 -1 19 1
12 4 -10 4 -9 9 4 24 9 10 24 19 32 19 8 0 12 6 8 15 -3 8 0 15 7 15 15 1 77
56 77 70 0 5 7 10 15 10 8 0 61 30 116 66 56 36 152 90 213 119 121 59 350
140 366 130 6 -3 10 -1 10 4 0 6 9 11 20 11 12 0 53 7 93 15 188 38 417 38
672 -1z"/>
<path d="M37360 16400 c0 -5 5 -10 11 -10 5 0 7 5 4 10 -3 6 -8 10 -11 10 -2
0 -4 -4 -4 -10z"/>
<path d="M37747 16402 c-9 -4 12 -7 47 -7 35 0 59 3 53 7 -15 9 -76 9 -100 0z"/>
<path d="M37258 16393 c7 -3 16 -2 19 1 4 3 -2 6 -13 5 -11 0 -14 -3 -6 -6z"/>
<path d="M36938 16313 c7 -3 16 -2 19 1 4 3 -2 6 -13 5 -11 0 -14 -3 -6 -6z"/>
<path d="M37355 16285 c25 -9 107 -12 94 -4 -8 5 -34 8 -59 8 -25 0 -40 -2
-35 -4z"/>
<path d="M37600 16280 l-85 -6 75 -1 c41 -1 98 2 125 7 46 7 47 7 10 7 -22 0
-78 -4 -125 -7z"/>
<path d="M37810 16260 c0 -5 7 -10 15 -10 8 0 15 5 15 10 0 6 -7 10 -15 10 -8
0 -15 -4 -15 -10z"/>
<path d="M37293 16253 c9 -2 23 -2 30 0 6 3 -1 5 -18 5 -16 0 -22 -2 -12 -5z"/>
<path d="M38348 16233 c7 -3 16 -2 19 1 4 3 -2 6 -13 5 -11 0 -14 -3 -6 -6z"/>
<path d="M37100 16223 c-14 -3 -29 -9 -34 -14 -6 -5 -19 -9 -30 -9 -10 0 -16
-3 -13 -6 8 -8 95 15 103 27 3 5 4 8 2 8 -2 -1 -14 -4 -28 -6z"/>
<path d="M38072 16223 c-17 -7 4 -33 27 -33 13 1 12 3 -4 12 -19 11 -19 11 0
19 13 5 14 8 5 8 -8 -1 -21 -3 -28 -6z"/>
<path d="M36960 16209 c0 -5 5 -7 10 -4 6 3 10 8 10 11 0 2 -4 4 -10 4 -5 0
-10 -5 -10 -11z"/>
<path d="M36970 16180 c-12 -8 -11 -10 7 -10 12 0 25 5 28 10 8 13 -15 13 -35
0z"/>
<path d="M36860 16130 c0 -5 4 -10 9 -10 6 0 13 5 16 10 3 6 -1 10 -9 10 -9 0
-16 -4 -16 -10z"/>
<path d="M38280 16130 c0 -7 24 -20 36 -20 13 0 1 19 -16 23 -11 3 -20 2 -20
-3z"/>
<path d="M38350 16096 c0 -9 30 -14 35 -6 4 6 -3 10 -14 10 -12 0 -21 -2 -21
-4z"/>
<path d="M38425 16050 c3 -5 11 -10 16 -10 6 0 7 5 4 10 -3 6 -11 10 -16 10
-6 0 -7 -4 -4 -10z"/>
<path d="M36656 16035 c-16 -12 -17 -15 -4 -15 8 0 21 7 28 15 16 19 1 19 -24
0z"/>
<path d="M38505 16010 c3 -5 8 -10 11 -10 2 0 4 5 4 10 0 6 -5 10 -11 10 -5 0
-7 -4 -4 -10z"/>
<path d="M36569 15963 c-13 -16 -12 -17 4 -4 9 7 17 15 17 17 0 8 -8 3 -21
-13z"/>
<path d="M38598 15943 c7 -3 16 -2 19 1 4 3 -2 6 -13 5 -11 0 -14 -3 -6 -6z"/>
<path d="M36498 15928 c9 -9 15 -9 24 0 9 9 7 12 -12 12 -19 0 -21 -3 -12 -12z"/>
<path d="M36401 15884 c0 -11 3 -14 6 -6 3 7 2 16 -1 19 -3 4 -6 -2 -5 -13z"/>
<path d="M38670 15896 c0 -11 30 -39 36 -34 2 3 -5 13 -16 23 -11 10 -20 15
-20 11z"/>
<path d="M36438 15876 c-10 -7 -18 -16 -18 -19 0 -12 28 4 34 19 6 17 6 17
-16 0z"/>
<path d="M38750 15826 c0 -2 8 -10 18 -17 15 -13 16 -12 3 4 -13 16 -21 21
-21 13z"/>
<path d="M38846 15725 c15 -14 29 -25 32 -25 3 0 -5 11 -18 25 -13 14 -27 25
-32 25 -5 0 3 -11 18 -25z"/>
<path d="M39041 15714 c0 -11 3 -14 6 -6 3 7 2 16 -1 19 -3 4 -6 -2 -5 -13z"/>
<path d="M36160 15639 c0 -5 5 -7 10 -4 6 3 10 8 10 11 0 2 -4 4 -10 4 -5 0
-10 -5 -10 -11z"/>
<path d="M36197 15633 c-4 -3 -7 -11 -7 -17 0 -6 5 -5 12 2 6 6 9 14 7 17 -3
3 -9 2 -12 -2z"/>
<path d="M38930 15630 c0 -5 5 -10 11 -10 5 0 7 5 4 10 -3 6 -8 10 -11 10 -2
0 -4 -4 -4 -10z"/>
<path d="M36100 15582 c0 -5 16 -8 35 -8 46 1 46 16 0 16 -19 0 -35 -4 -35 -8z"/>
<path d="M37442 15569 c-149 -20 -305 -94 -402 -191 -63 -63 -73 -77 -105
-144 -35 -73 -40 -169 -12 -222 33 -61 112 -92 184 -73 53 14 77 40 116 126
77 168 124 214 242 234 71 13 163 3 212 -22 48 -25 94 -77 120 -134 22 -49 25
-65 20 -128 -9 -118 -60 -192 -166 -243 -45 -21 -76 -26 -176 -32 -182 -11
-235 -47 -235 -157 0 -60 26 -104 73 -126 29 -14 62 -17 189 -15 185 4 236
-10 308 -82 65 -64 90 -125 97 -229 7 -103 -12 -180 -60 -250 -43 -63 -72 -87
-147 -124 -59 -29 -74 -32 -155 -32 -77 0 -97 4 -141 26 -91 47 -150 125 -225
299 -43 100 -50 109 -92 128 -78 34 -172 2 -222 -78 -101 -161 125 -505 400
-609 240 -90 529 -60 733 77 139 93 245 232 283 373 17 63 22 220 9 282 -14
70 -61 169 -105 220 -41 49 -174 157 -192 157 -32 0 -18 28 54 103 112 120
153 216 153 364 0 285 -239 497 -575 508 -60 2 -143 -1 -183 -6z"/>
<path d="M39135 15571 c-3 -5 -1 -12 5 -16 5 -3 10 1 10 9 0 18 -6 21 -15 7z"/>
<path d="M36120 15534 c0 -8 5 -12 10 -9 6 3 10 10 10 16 0 5 -4 9 -10 9 -5 0
-10 -7 -10 -16z"/>
<path d="M36096 15494 c-10 -25 1 -29 14 -5 6 12 7 21 1 21 -5 0 -12 -7 -15
-16z"/>
<path d="M39060 15461 c0 -5 5 -13 10 -16 6 -3 10 -2 10 4 0 5 -4 13 -10 16
-5 3 -10 2 -10 -4z"/>
<path d="M36046 15414 c-9 -24 -2 -26 12 -4 7 11 8 20 3 20 -5 0 -12 -7 -15
-16z"/>
<path d="M39082 15410 c7 -11 16 -20 20 -20 5 0 3 9 -4 20 -7 11 -16 20 -20
20 -5 0 -3 -9 4 -20z"/>
<path d="M36000 15361 c0 -6 4 -13 10 -16 6 -3 7 1 4 9 -7 18 -14 21 -14 7z"/>
<path d="M39130 15343 c0 -5 5 -15 10 -23 8 -12 10 -11 10 8 0 12 -4 22 -10
22 -5 0 -10 -3 -10 -7z"/>
<path d="M35815 15280 c-3 -5 -1 -10 4 -10 6 0 11 5 11 10 0 6 -2 10 -4 10 -3
0 -8 -4 -11 -10z"/>
<path d="M35937 15193 c-4 -3 -7 -11 -7 -17 0 -6 5 -5 12 2 6 6 9 14 7 17 -3
3 -9 2 -12 -2z"/>
<path d="M39232 15110 c0 -14 2 -19 5 -12 2 6 2 18 0 25 -3 6 -5 1 -5 -13z"/>
<path d="M35841 15095 c0 -11 4 -27 9 -35 9 -13 10 -13 9 0 0 8 -4 24 -9 35
l-9 20 0 -20z"/>
<path d="M39241 15064 c0 -11 3 -14 6 -6 3 7 2 16 -1 19 -3 4 -6 -2 -5 -13z"/>
<path d="M39272 14960 c0 -14 2 -19 5 -12 2 6 2 18 0 25 -3 6 -5 1 -5 -13z"/>
<path d="M35850 14935 c0 -8 2 -15 4 -15 2 0 6 7 10 15 3 8 1 15 -4 15 -6 0
-10 -7 -10 -15z"/>
<path d="M35842 14860 c0 -14 2 -19 5 -12 2 6 2 18 0 25 -3 6 -5 1 -5 -13z"/>
<path d="M39321 14854 c0 -11 3 -14 6 -6 3 7 2 16 -1 19 -3 4 -6 -2 -5 -13z"/>
<path d="M39351 14854 c0 -11 3 -14 6 -6 3 7 2 16 -1 19 -3 4 -6 -2 -5 -13z"/>
<path d="M39310 14780 c0 -5 5 -10 10 -10 6 0 10 5 10 10 0 6 -4 10 -10 10 -5
0 -10 -4 -10 -10z"/>
<path d="M39441 14774 c0 -11 3 -14 6 -6 3 7 2 16 -1 19 -3 4 -6 -2 -5 -13z"/>
<path d="M39460 14734 c0 -10 5 -26 10 -34 8 -11 9 -7 4 15 -8 37 -14 45 -14
19z"/>
<path d="M35780 14694 c0 -8 5 -12 10 -9 6 3 10 10 10 16 0 5 -4 9 -10 9 -5 0
-10 -7 -10 -16z"/>
<path d="M35761 14644 c0 -11 3 -14 6 -6 3 7 2 16 -1 19 -3 4 -6 -2 -5 -13z"/>
<path d="M35813 14590 c0 -25 2 -35 4 -22 2 12 2 32 0 45 -2 12 -4 2 -4 -23z"/>
<path d="M39483 14550 c0 -47 2 -66 4 -42 2 23 2 61 0 85 -2 23 -4 4 -4 -43z"/>
<path d="M35781 14454 c0 -11 3 -14 6 -6 3 7 2 16 -1 19 -3 4 -6 -2 -5 -13z"/>
<path d="M35813 14430 c0 -25 2 -35 4 -22 2 12 2 32 0 45 -2 12 -4 2 -4 -23z"/>
<path d="M35761 14374 c0 -11 3 -14 6 -6 3 7 2 16 -1 19 -3 4 -6 -2 -5 -13z"/>
<path d="M35780 14326 c0 -9 5 -16 10 -16 6 0 10 4 10 9 0 6 -4 13 -10 16 -5
3 -10 -1 -10 -9z"/>
<path d="M39462 14290 c0 -14 2 -19 5 -12 2 6 2 18 0 25 -3 6 -5 1 -5 -13z"/>
<path d="M39310 14257 c0 -10 7 -25 15 -33 19 -19 19 -7 0 26 -11 20 -14 21
-15 7z"/>
<path d="M39442 14225 c0 -16 2 -22 5 -12 2 9 2 23 0 30 -3 6 -5 -1 -5 -18z"/>
<path d="M39322 14170 c0 -14 2 -19 5 -12 2 6 2 18 0 25 -3 6 -5 1 -5 -13z"/>
<path d="M39352 14170 c0 -14 2 -19 5 -12 2 6 2 18 0 25 -3 6 -5 1 -5 -13z"/>
<path d="M35850 14085 c0 -8 4 -15 10 -15 5 0 7 7 4 15 -4 8 -8 15 -10 15 -2
0 -4 -7 -4 -15z"/>
<path d="M39272 14070 c0 -14 2 -19 5 -12 2 6 2 18 0 25 -3 6 -5 1 -5 -13z"/>
<path d="M39250 14001 c0 -5 7 -11 14 -14 10 -4 13 -1 9 9 -6 15 -23 19 -23 5z"/>
<path d="M35891 13964 c0 -11 3 -14 6 -6 3 7 2 16 -1 19 -3 4 -6 -2 -5 -13z"/>
<path d="M35752 13920 c0 -14 2 -19 5 -12 2 6 2 18 0 25 -3 6 -5 1 -5 -13z"/>
<path d="M35921 13894 c0 -11 3 -14 6 -6 3 7 2 16 -1 19 -3 4 -6 -2 -5 -13z"/>
<path d="M39361 13864 c0 -11 3 -14 6 -6 3 7 2 16 -1 19 -3 4 -6 -2 -5 -13z"/>
<path d="M39188 13817 c-3 -19 -2 -25 4 -19 6 6 8 18 6 28 -3 14 -5 12 -10 -9z"/>
<path d="M35945 13820 c3 -5 8 -10 11 -10 2 0 4 5 4 10 0 6 -5 10 -11 10 -5 0
-7 -4 -4 -10z"/>
<path d="M35811 13794 c0 -11 3 -14 6 -6 3 7 2 16 -1 19 -3 4 -6 -2 -5 -13z"/>
<path d="M39135 13699 c-4 -6 -5 -12 -2 -15 2 -3 7 2 10 11 7 17 1 20 -8 4z"/>
<path d="M39281 13684 c0 -11 3 -14 6 -6 3 7 2 16 -1 19 -3 4 -6 -2 -5 -13z"/>
<path d="M36006 13675 c-4 -10 -2 -14 5 -9 6 4 15 0 20 -7 5 -8 9 -9 9 -3 0 6
-6 17 -14 23 -11 9 -15 8 -20 -4z"/>
<path d="M39175 13680 c-3 -5 -1 -10 4 -10 6 0 11 5 11 10 0 6 -2 10 -4 10 -3
0 -8 -4 -11 -10z"/>
<path d="M36010 13625 c0 -8 5 -15 10 -15 6 0 10 7 10 15 0 8 -4 15 -10 15 -5
0 -10 -7 -10 -15z"/>
<path d="M39015 13509 c-4 -6 -5 -12 -2 -15 2 -3 7 2 10 11 7 17 1 20 -8 4z"/>
<path d="M36125 13480 c3 -5 8 -10 11 -10 2 0 4 5 4 10 0 6 -5 10 -11 10 -5 0
-7 -4 -4 -10z"/>
<path d="M35980 13470 c0 -5 5 -10 10 -10 6 0 10 5 10 10 0 6 -4 10 -10 10 -5
0 -10 -4 -10 -10z"/>
<path d="M36160 13451 c0 -10 19 -25 25 -20 1 2 -3 10 -11 17 -8 7 -14 8 -14
3z"/>
<path d="M38871 13334 c0 -11 3 -14 6 -6 3 7 2 16 -1 19 -3 4 -6 -2 -5 -13z"/>
<path d="M36260 13326 c0 -2 8 -10 18 -17 15 -13 16 -12 3 4 -13 16 -21 21
-21 13z"/>
<path d="M36240 13280 c0 -5 5 -10 11 -10 5 0 7 5 4 10 -3 6 -8 10 -11 10 -2
0 -4 -4 -4 -10z"/>
<path d="M36340 13242 c0 -4 9 -13 20 -19 16 -11 18 -10 14 1 -6 15 -34 30
-34 18z"/>
<path d="M38780 13240 c-8 -5 -12 -11 -9 -14 2 -3 11 -1 19 4 8 5 12 11 9 14
-2 3 -11 1 -19 -4z"/>
<path d="M38711 13174 c0 -11 3 -14 6 -6 3 7 2 16 -1 19 -3 4 -6 -2 -5 -13z"/>
<path d="M38925 13180 c4 -6 11 -8 16 -5 14 9 11 15 -7 15 -8 0 -12 -5 -9 -10z"/>
<path d="M36430 13162 c0 -12 19 -26 26 -19 2 2 -2 10 -11 17 -9 8 -15 8 -15
2z"/>
<path d="M38800 13079 c0 -5 5 -7 10 -4 6 3 10 8 10 11 0 2 -4 4 -10 4 -5 0
-10 -5 -10 -11z"/>
<path d="M38725 13020 c-8 -13 5 -13 25 0 13 8 13 10 -2 10 -9 0 -20 -4 -23
-10z"/>
<path d="M36660 13000 c0 -6 7 -10 15 -10 8 0 15 2 15 4 0 2 -7 6 -15 10 -8 3
-15 1 -15 -4z"/>
<path d="M38450 12993 c-14 -7 -18 -13 -10 -13 17 0 47 17 40 23 -3 2 -16 -2
-30 -10z"/>
<path d="M36724 12966 c11 -9 24 -16 30 -16 12 0 7 5 -24 19 -24 11 -24 11 -6
-3z"/>
<path d="M36800 12926 c0 -5 88 -46 97 -46 9 1 -78 49 -89 50 -5 0 -8 -2 -8
-4z"/>
<path d="M36990 12840 c0 -5 5 -10 10 -10 6 0 10 5 10 10 0 6 -4 10 -10 10 -5
0 -10 -4 -10 -10z"/>
<path d="M38110 12840 c-12 -8 -11 -10 8 -10 12 0 22 5 22 10 0 13 -11 13 -30
0z"/>
<path d="M36705 12830 c-3 -5 -1 -10 4 -10 6 0 11 5 11 10 0 6 -2 10 -4 10 -3
0 -8 -4 -11 -10z"/>
<path d="M37040 12830 c0 -5 5 -10 11 -10 5 0 7 5 4 10 -3 6 -8 10 -11 10 -2
0 -4 -4 -4 -10z"/>
<path d="M37110 12810 c8 -5 20 -10 25 -10 6 0 3 5 -5 10 -8 5 -19 10 -25 10
-5 0 -3 -5 5 -10z"/>
<path d="M37988 12803 c6 -2 18 -2 25 0 6 3 1 5 -13 5 -14 0 -19 -2 -12 -5z"/>
<path d="M37193 12793 c9 -2 23 -2 30 0 6 3 -1 5 -18 5 -16 0 -22 -2 -12 -5z"/>
<path d="M37373 12763 c9 -2 25 -2 35 0 9 3 1 5 -18 5 -19 0 -27 -2 -17 -5z"/>
<path d="M37748 12763 c6 -2 18 -2 25 0 6 3 1 5 -13 5 -14 0 -19 -2 -12 -5z"/>
<path d="M37448 12753 c7 -3 16 -2 19 1 4 3 -2 6 -13 5 -11 0 -14 -3 -6 -6z"/>
<path d="M37688 12733 c7 -3 16 -2 19 1 4 3 -2 6 -13 5 -11 0 -14 -3 -6 -6z"/>
<path d="M38168 12703 c7 -3 16 -2 19 1 4 3 -2 6 -13 5 -11 0 -14 -3 -6 -6z"/>
<path d="M37338 12623 c7 -3 16 -2 19 1 4 3 -2 6 -13 5 -11 0 -14 -3 -6 -6z"/>
<path d="M37848 12623 c7 -3 16 -2 19 1 4 3 -2 6 -13 5 -11 0 -14 -3 -6 -6z"/>
<path d="M37448 12613 c6 -2 18 -2 25 0 6 3 1 5 -13 5 -14 0 -19 -2 -12 -5z"/>
<path d="M36838 16463 c7 -3 16 -2 19 1 4 3 -2 6 -13 5 -11 0 -14 -3 -6 -6z"/>
<path d="M38545 16350 c-3 -5 -1 -10 4 -10 6 0 11 5 11 10 0 6 -2 10 -4 10 -3
0 -8 -4 -11 -10z"/>
<path d="M38710 16241 c0 -10 19 -25 25 -20 1 2 -3 10 -11 17 -8 7 -14 8 -14
3z"/>
<path d="M34226 16171 c-4 -7 -5 -15 -2 -18 9 -9 19 4 14 18 -4 11 -6 11 -12
0z"/>
<path d="M34183 16070 c0 -47 2 -66 4 -42 2 23 2 61 0 85 -2 23 -4 4 -4 -43z"/>
<path d="M34203 16110 c0 -25 2 -35 4 -22 2 12 2 32 0 45 -2 12 -4 2 -4 -23z"/>
<path d="M34852 16125 c0 -16 2 -22 5 -12 2 9 2 23 0 30 -3 6 -5 -1 -5 -18z"/>
<path d="M34231 16004 c0 -11 3 -14 6 -6 3 7 2 16 -1 19 -3 4 -6 -2 -5 -13z"/>
<path d="M34202 15960 c0 -19 2 -27 5 -17 2 9 2 25 0 35 -3 9 -5 1 -5 -18z"/>
<path d="M36080 15979 c0 -5 5 -7 10 -4 6 3 10 8 10 11 0 2 -4 4 -10 4 -5 0
-10 -5 -10 -11z"/>
<path d="M39025 15980 c3 -5 8 -10 11 -10 2 0 4 5 4 10 0 6 -5 10 -11 10 -5 0
-7 -4 -4 -10z"/>
<path d="M34182 15895 c-2 -65 13 -108 22 -64 11 55 13 79 5 79 -5 0 -10 -19
-11 -42 -1 -35 -3 -31 -8 22 l-7 65 -1 -60z"/>
<path d="M45213 15854 c-13 -35 46 -451 82 -580 107 -381 202 -537 405 -670
69 -44 213 -105 308 -129 87 -23 249 -45 325 -45 l67 0 0 97 c0 54 -7 147 -15
208 -18 128 -64 325 -77 325 -4 0 -8 9 -8 20 0 12 -22 65 -48 118 -155 313
-349 475 -707 592 -66 22 -163 46 -215 55 -52 9 -98 19 -102 21 -5 3 -11 -3
-15 -12z"/>
<path d="M6730 15840 c-120 -22 -290 -78 -400 -133 -47 -23 -87 -44 -90 -48
-3 -3 -30 -22 -61 -42 -65 -43 -163 -138 -222 -215 -164 -216 -261 -528 -262
-847 l0 -120 95 1 c287 5 577 116 738 283 175 181 301 570 347 1069 l7 72 -28
-1 c-16 -1 -72 -9 -124 -19z"/>
<path d="M34561 15844 c0 -11 3 -14 6 -6 3 7 2 16 -1 19 -3 4 -6 -2 -5 -13z"/>
<path d="M34871 15814 c0 -11 3 -14 6 -6 3 7 2 16 -1 19 -3 4 -6 -2 -5 -13z"/>
<path d="M34225 15749 c-4 -6 -5 -12 -2 -15 2 -3 7 2 10 11 7 17 1 20 -8 4z"/>
<path d="M34202 15718 c-1 -20 -5 -45 -8 -55 -5 -17 -5 -17 6 0 6 9 9 34 7 55
l-4 37 -1 -37z"/>
<path d="M34572 15695 c0 -11 4 -33 8 -50 7 -27 8 -27 8 -5 0 14 -4 36 -8 50
-6 20 -8 21 -8 5z"/>
<path d="M34226 15675 c-3 -9 -5 -29 -5 -43 1 -20 3 -17 9 13 8 43 7 57 -4 30z"/>
<path d="M34201 15578 c0 -7 4 -22 9 -33 7 -17 9 -15 9 13 1 17 -3 32 -9 32
-5 0 -10 -6 -9 -12z"/>
<path d="M35762 15570 c0 -14 2 -19 5 -12 2 6 2 18 0 25 -3 6 -5 1 -5 -13z"/>
<path d="M40892 15560 c0 -19 2 -27 5 -17 2 9 2 25 0 35 -3 9 -5 1 -5 -18z"/>
<path d="M34907 15505 c3 -38 9 -79 14 -90 9 -22 1 56 -12 120 -5 28 -6 18 -2
-30z"/>
<path d="M34231 15524 c0 -11 3 -14 6 -6 3 7 2 16 -1 19 -3 4 -6 -2 -5 -13z"/>
<path d="M34597 15490 c3 -30 7 -57 9 -59 8 -9 2 75 -6 94 -5 12 -6 -1 -3 -35z"/>
<path d="M40921 15524 c0 -11 3 -14 6 -6 3 7 2 16 -1 19 -3 4 -6 -2 -5 -13z"/>
<path d="M34946 15515 c-3 -9 -6 -26 -5 -38 1 -14 4 -9 9 13 9 37 7 52 -4 25z"/>
<path d="M34212 15485 c0 -16 2 -22 5 -12 2 9 2 23 0 30 -3 6 -5 -1 -5 -18z"/>
<path d="M34573 15465 c0 -22 2 -30 4 -17 2 12 2 30 0 40 -3 9 -5 -1 -4 -23z"/>
<path d="M34223 15395 c0 -22 2 -30 4 -17 2 12 2 30 0 40 -3 9 -5 -1 -4 -23z"/>
<path d="M39431 15414 c0 -11 3 -14 6 -6 3 7 2 16 -1 19 -3 4 -6 -2 -5 -13z"/>
<path d="M34612 15375 c0 -16 2 -22 5 -12 2 9 2 23 0 30 -3 6 -5 -1 -5 -18z"/>
<path d="M34220 15341 c0 -6 5 -13 10 -16 6 -3 10 1 10 9 0 9 -4 16 -10 16 -5
0 -10 -4 -10 -9z"/>
<path d="M39470 15339 c0 -5 5 -7 10 -4 6 3 10 8 10 11 0 2 -4 4 -10 4 -5 0
-10 -5 -10 -11z"/>
<path d="M39512 15330 c0 -14 2 -19 5 -12 2 6 2 18 0 25 -3 6 -5 1 -5 -13z"/>
<path d="M34942 15275 c0 -16 2 -22 5 -12 2 9 2 23 0 30 -3 6 -5 -1 -5 -18z"/>
<path d="M39495 15260 c3 -5 8 -10 11 -10 2 0 4 5 4 10 0 6 -5 10 -11 10 -5 0
-7 -4 -4 -10z"/>
<path d="M35621 15234 c0 -11 3 -14 6 -6 3 7 2 16 -1 19 -3 4 -6 -2 -5 -13z"/>
<path d="M39511 15224 c0 -11 3 -14 6 -6 3 7 2 16 -1 19 -3 4 -6 -2 -5 -13z"/>
<path d="M40892 15205 c0 -16 2 -22 5 -12 2 9 2 23 0 30 -3 6 -5 -1 -5 -18z"/>
<path d="M34262 15140 c0 -14 2 -19 5 -12 2 6 2 18 0 25 -3 6 -5 1 -5 -13z"/>
<path d="M34295 15129 c-9 -17 -14 -36 -11 -42 2 -7 5 -4 5 6 1 9 5 17 10 17
5 0 11 11 13 25 7 33 2 32 -17 -6z"/>
<path d="M35601 15144 c0 -11 3 -14 6 -6 3 7 2 16 -1 19 -3 4 -6 -2 -5 -13z"/>
<path d="M40883 15125 c0 -22 2 -30 4 -17 2 12 2 30 0 40 -3 9 -5 -1 -4 -23z"/>
<path d="M4145 15140 c-180 -13 -245 -22 -245 -32 0 -12 37 -87 68 -138 12
-19 25 -42 29 -50 38 -83 206 -304 315 -415 79 -80 206 -175 236 -175 6 0 12
-4 14 -9 5 -14 199 -82 276 -97 92 -18 254 -17 352 0 89 16 254 78 295 110
l28 22 -38 70 c-44 78 -116 196 -125 204 -3 3 -13 14 -21 26 -62 90 -276 304
-305 304 -4 0 -21 10 -38 23 -150 109 -532 180 -841 157z"/>
<path d="M47680 15139 c-336 -33 -479 -79 -660 -211 -65 -48 -187 -171 -244
-248 -84 -114 -196 -300 -196 -328 0 -26 233 -117 337 -132 90 -13 249 -13
315 0 152 31 375 124 428 180 3 3 25 21 48 39 24 19 66 58 94 87 51 54 188
227 201 254 4 8 30 49 57 90 68 102 133 231 123 241 -19 19 -386 40 -503 28z"/>
<path d="M34652 15110 c0 -19 2 -27 5 -17 2 9 2 25 0 35 -3 9 -5 1 -5 -18z"/>
<path d="M34975 15100 c3 -5 8 -10 11 -10 2 0 4 5 4 10 0 6 -5 10 -11 10 -5 0
-7 -4 -4 -10z"/>
<path d="M35001 15070 c-1 -14 -4 -36 -6 -50 l-6 -25 11 25 c6 13 9 36 7 50
l-4 25 -2 -25z"/>
<path d="M34272 15040 c0 -19 2 -27 5 -17 2 9 2 25 0 35 -3 9 -5 1 -5 -18z"/>
<path d="M35026 15038 c-3 -13 -5 -32 -5 -43 1 -11 5 -2 10 19 10 42 6 62 -5
24z"/>
<path d="M34292 15030 c0 -14 2 -19 5 -12 2 6 2 18 0 25 -3 6 -5 1 -5 -13z"/>
<path d="M34672 15025 c0 -16 2 -22 5 -12 2 9 2 23 0 30 -3 6 -5 -1 -5 -18z"/>
<path d="M34311 15014 c0 -11 3 -14 6 -6 3 7 2 16 -1 19 -3 4 -6 -2 -5 -13z"/>
<path d="M40812 15005 c0 -16 2 -22 5 -12 2 9 2 23 0 30 -3 6 -5 -1 -5 -18z"/>
<path d="M40835 15000 c-4 -17 -4 -53 0 -79 4 -31 3 -51 -4 -56 -6 -3 -11 1
-11 11 0 10 -2 15 -5 12 -3 -2 -2 -27 2 -54 l7 -49 8 35 c8 31 18 210 12 210
-1 0 -5 -14 -9 -30z"/>
<path d="M34285 14961 c3 -18 5 -41 6 -50 1 -9 5 2 10 23 5 21 7 41 4 44 -3 3
-5 -3 -6 -14 -1 -15 -3 -14 -10 6 -7 21 -8 20 -4 -9z"/>
<path d="M34650 14935 c0 -8 5 -15 10 -15 6 0 10 7 10 15 0 8 -4 15 -10 15 -5
0 -10 -7 -10 -15z"/>
<path d="M40802 14930 c0 -14 2 -19 5 -12 2 6 2 18 0 25 -3 6 -5 1 -5 -13z"/>
<path d="M35530 14891 c0 -12 5 -21 10 -21 6 0 10 6 10 14 0 8 -4 18 -10 21
-5 3 -10 -3 -10 -14z"/>
<path d="M34302 14870 c0 -14 2 -19 5 -12 2 6 2 18 0 25 -3 6 -5 1 -5 -13z"/>
<path d="M7000 14841 c-147 -65 -355 -189 -454 -271 -17 -14 -42 -34 -56 -45
-40 -31 -172 -166 -213 -216 -48 -60 -110 -193 -137 -294 -27 -103 -50 -278
-50 -379 0 -98 28 -342 43 -378 12 -27 14 -28 92 -28 299 1 624 190 772 449
15 25 32 53 38 61 14 18 71 171 84 225 34 142 39 452 11 700 -11 104 -30 204
-39 210 -4 2 -45 -13 -91 -34z"/>
<path d="M44982 14823 c-28 -153 -37 -263 -37 -493 0 -197 4 -261 18 -327 17
-79 73 -243 87 -253 3 -3 22 -33 41 -67 18 -35 37 -63 41 -63 5 0 8 -5 8 -10
0 -21 156 -173 225 -218 144 -97 267 -140 459 -161 135 -15 130 -20 151 122
19 130 25 358 12 467 -24 200 -99 403 -187 503 -22 25 -40 47 -40 50 0 7 -88
93 -123 120 -18 14 -48 39 -67 56 -19 17 -73 57 -120 88 -47 32 -87 60 -90 63
-3 3 -34 21 -70 39 -36 19 -72 39 -80 46 -8 7 -26 16 -39 20 -14 4 -57 23 -97
41 -39 19 -74 34 -77 34 -2 0 -9 -26 -15 -57z"/>
<path d="M35031 14854 c0 -11 3 -14 6 -6 3 7 2 16 -1 19 -3 4 -6 -2 -5 -13z"/>
<path d="M34721 14804 c0 -11 3 -14 6 -6 3 7 2 16 -1 19 -3 4 -6 -2 -5 -13z"/>
<path d="M40811 14754 c0 -11 3 -14 6 -6 3 7 2 16 -1 19 -3 4 -6 -2 -5 -13z"/>
<path d="M34730 14730 c0 -11 4 -20 9 -20 5 0 7 9 4 20 -3 11 -7 20 -9 20 -2
0 -4 -9 -4 -20z"/>
<path d="M35061 14730 c0 -14 6 -38 14 -55 l14 -30 -6 30 c-3 17 -10 41 -14
55 l-7 25 -1 -25z"/>
<path d="M35097 14733 c-11 -10 -8 -20 7 -26 10 -4 12 0 9 14 -6 21 -7 22 -16
12z"/>
<path d="M40801 14704 c0 -11 3 -14 6 -6 3 7 2 16 -1 19 -3 4 -6 -2 -5 -13z"/>
<path d="M34342 14680 c0 -14 2 -19 5 -12 2 6 2 18 0 25 -3 6 -5 1 -5 -13z"/>
<path d="M34350 14631 c0 -11 5 -23 10 -26 6 -4 10 5 10 19 0 14 -4 26 -10 26
-5 0 -10 -9 -10 -19z"/>
<path d="M34771 14614 c0 -11 3 -14 6 -6 3 7 2 16 -1 19 -3 4 -6 -2 -5 -13z"/>
<path d="M40722 14530 c0 -14 2 -19 5 -12 2 6 2 18 0 25 -3 6 -5 1 -5 -13z"/>
<path d="M35111 14524 c0 -11 3 -14 6 -6 3 7 2 16 -1 19 -3 4 -6 -2 -5 -13z"/>
<path d="M34382 14495 c0 -16 2 -22 5 -12 2 9 2 23 0 30 -3 6 -5 -1 -5 -18z"/>
<path d="M11015 14486 c-33 -13 -73 -28 -88 -34 -16 -7 -30 -12 -33 -12 -9 0
-311 -151 -369 -184 -33 -20 -78 -45 -100 -57 -22 -12 -60 -36 -85 -54 -25
-18 -58 -39 -75 -48 -16 -8 -43 -26 -58 -39 l-28 -25 33 -34 c19 -19 72 -68
118 -109 47 -41 87 -77 90 -80 25 -27 330 -272 415 -335 22 -16 42 -31 45 -34
3 -4 39 -28 80 -56 41 -27 77 -52 80 -55 9 -11 242 -155 315 -195 81 -45 241
-125 249 -125 3 0 33 -13 65 -29 62 -30 282 -103 361 -120 93 -20 277 -33 365
-26 169 13 383 64 538 129 20 9 52 22 71 30 l34 14 -142 144 c-77 79 -159 164
-182 188 -94 103 -275 339 -339 441 -15 24 -31 46 -34 49 -7 5 -56 79 -103
155 -14 22 -44 76 -68 120 -63 117 -64 120 -71 125 -4 3 -14 22 -22 43 -9 20
-21 37 -28 37 -47 0 -365 46 -459 66 -117 25 -359 89 -395 104 -38 16 -88 30
-104 29 -9 0 -43 -11 -76 -23z"/>
<path d="M34802 14480 c0 -14 2 -19 5 -12 2 6 2 18 0 25 -3 6 -5 1 -5 -13z"/>
<path d="M35141 14454 c0 -11 3 -14 6 -6 3 7 2 16 -1 19 -3 4 -6 -2 -5 -13z"/>
<path d="M35152 14415 c0 -11 3 -29 7 -39 7 -18 8 -18 14 -3 3 9 2 17 -3 17
-5 0 -11 10 -13 23 -4 18 -4 19 -5 2z"/>
<path d="M34421 14354 c0 -11 3 -14 6 -6 3 7 2 16 -1 19 -3 4 -6 -2 -5 -13z"/>
<path d="M34471 14354 c0 -11 3 -14 6 -6 3 7 2 16 -1 19 -3 4 -6 -2 -5 -13z"/>
<path d="M34847 14329 c4 -13 8 -18 11 -10 2 7 -1 18 -6 23 -8 8 -9 4 -5 -13z"/>
<path d="M34432 14315 c0 -11 3 -29 8 -40 11 -25 11 1 0 35 -6 20 -8 21 -8 5z"/>
<path d="M34810 14320 c0 -5 5 -10 11 -10 5 0 7 5 4 10 -3 6 -8 10 -11 10 -2
0 -4 -4 -4 -10z"/>
<path d="M35187 14290 c3 -11 7 -20 9 -20 2 0 4 9 4 20 0 11 -4 20 -9 20 -5 0
-7 -9 -4 -20z"/>
<path d="M34470 14249 c0 -19 -2 -21 -10 -9 -11 18 -12 3 -1 -25 7 -17 9 -16
16 13 4 18 4 36 1 39 -3 4 -6 -5 -6 -18z"/>
<path d="M34881 14234 c0 -11 3 -14 6 -6 3 7 2 16 -1 19 -3 4 -6 -2 -5 -13z"/>
<path d="M35216 14215 c4 -8 8 -15 10 -15 2 0 4 7 4 15 0 8 -4 15 -10 15 -5 0
-7 -7 -4 -15z"/>
<path d="M34472 14170 c0 -14 2 -19 5 -12 2 6 2 18 0 25 -3 6 -5 1 -5 -13z"/>
<path d="M34886 14159 c-8 -42 0 -50 9 -9 4 17 5 34 2 36 -2 3 -7 -10 -11 -27z"/>
<path d="M34543 14126 c7 -14 13 -23 15 -21 7 6 -9 45 -18 45 -4 0 -3 -11 3
-24z"/>
<path d="M34911 14134 c0 -11 3 -14 6 -6 3 7 2 16 -1 19 -3 4 -6 -2 -5 -13z"/>
<path d="M35246 14130 c3 -14 10 -32 15 -40 7 -13 8 -13 8 0 0 8 -6 26 -15 40
l-15 25 7 -25z"/>
<path d="M35531 14134 c0 -11 3 -14 6 -6 3 7 2 16 -1 19 -3 4 -6 -2 -5 -13z"/>
<path d="M34526 14100 c3 -14 8 -33 11 -42 3 -10 1 -18 -5 -18 -6 0 -14 16
-18 35 -3 19 -10 35 -15 35 -13 0 -12 -5 13 -61 15 -35 24 -46 29 -37 13 19
10 49 -7 83 -12 26 -13 26 -8 5z"/>
<path d="M34920 14103 c0 -4 5 -15 10 -23 8 -13 10 -13 10 2 0 9 -4 20 -10 23
-5 3 -10 3 -10 -2z"/>
<path d="M39592 14075 c0 -16 2 -22 5 -12 2 9 2 23 0 30 -3 6 -5 -1 -5 -18z"/>
<path d="M34890 14080 c0 -5 5 -10 10 -10 6 0 10 5 10 10 0 6 -4 10 -10 10 -5
0 -10 -4 -10 -10z"/>
<path d="M4695 14063 c-106 -14 -305 -64 -425 -108 -41 -15 -91 -32 -110 -38
-19 -6 -37 -12 -39 -14 -2 -1 21 -42 51 -90 30 -49 76 -122 101 -164 187 -313
362 -493 581 -599 163 -79 255 -102 416 -104 86 -1 155 4 190 13 64 16 213 71
220 81 3 4 21 15 40 25 84 43 210 155 210 187 0 39 -116 257 -177 333 -119
147 -186 211 -303 291 -125 84 -217 124 -426 185 -29 9 -268 10 -329 2z"/>
<path d="M40581 14054 c0 -11 3 -14 6 -6 3 7 2 16 -1 19 -3 4 -6 -2 -5 -13z"/>
<path d="M47050 14058 c-182 -51 -346 -126 -445 -205 -196 -156 -306 -290
-408 -500 -55 -112 -55 -107 0 -159 108 -104 273 -194 428 -235 86 -23 284
-18 395 10 90 23 302 114 331 143 8 8 31 26 53 40 66 45 185 165 236 238 13
19 30 40 36 47 7 7 43 61 80 120 38 59 72 110 76 111 5 2 8 9 8 15 0 6 30 57
66 114 37 57 65 105 63 106 -7 4 -103 38 -149 54 -25 8 -54 19 -65 23 -29 13
-165 46 -285 69 -114 23 -353 28 -420 9z"/>
<path d="M34961 13994 c0 -11 3 -14 6 -6 3 7 2 16 -1 19 -3 4 -6 -2 -5 -13z"/>
<path d="M39575 14000 c-3 -5 -1 -10 4 -10 6 0 11 5 11 10 0 6 -2 10 -4 10 -3
0 -8 -4 -11 -10z"/>
<path d="M34546 13955 c4 -8 8 -15 10 -15 2 0 4 7 4 15 0 8 -4 15 -10 15 -5 0
-7 -7 -4 -15z"/>
<path d="M34970 13958 c0 -9 5 -20 10 -23 13 -8 13 5 0 25 -8 13 -10 13 -10
-2z"/>
<path d="M39561 13924 c0 -11 3 -14 6 -6 3 7 2 16 -1 19 -3 4 -6 -2 -5 -13z"/>
<path d="M7705 13918 c-52 -19 -225 -112 -321 -173 -148 -95 -330 -253 -412
-360 -49 -63 -107 -171 -171 -315 -33 -76 -80 -298 -88 -415 -9 -124 1 -364
18 -440 6 -27 13 -61 15 -75 3 -14 16 -70 30 -125 14 -55 26 -106 27 -112 1
-18 16 -16 99 11 130 43 347 138 383 169 6 4 45 31 88 59 42 27 115 87 160
131 211 209 285 415 294 829 5 212 -5 382 -33 564 -8 54 -20 128 -25 164 -11
76 -18 100 -27 99 -4 0 -20 -5 -37 -11z"/>
<path d="M44336 13913 c-7 -18 -47 -287 -67 -445 -7 -62 -9 -183 -6 -340 4
-212 8 -258 31 -363 14 -66 34 -143 45 -171 22 -57 61 -136 72 -144 3 -3 14
-19 22 -37 23 -44 168 -188 252 -251 69 -51 251 -156 310 -178 114 -44 262
-94 274 -92 20 4 68 197 96 383 24 168 14 536 -17 572 -6 8 -8 16 -6 19 12 11
-64 237 -111 330 -77 154 -155 253 -292 372 -96 85 -104 91 -164 132 -28 19
-51 37 -53 42 -2 4 -8 8 -12 8 -5 0 -33 14 -62 32 -63 37 -254 133 -284 142
-15 5 -24 2 -28 -11z"/>
<path d="M34607 13875 c3 -22 7 -42 9 -44 8 -9 2 45 -6 64 -7 14 -8 8 -3 -20z"/>
<path d="M34576 13870 c4 -19 10 -42 15 -50 11 -18 1 34 -13 65 -5 13 -6 9 -2
-15z"/>
<path d="M35352 13855 c0 -16 2 -22 5 -12 2 9 2 23 0 30 -3 6 -5 -1 -5 -18z"/>
<path d="M35010 13840 c0 -5 5 -10 11 -10 5 0 7 5 4 10 -3 6 -8 10 -11 10 -2
0 -4 -4 -4 -10z"/>
<path d="M34605 13790 c3 -5 8 -10 11 -10 2 0 4 5 4 10 0 6 -5 10 -11 10 -5 0
-7 -4 -4 -10z"/>
<path d="M35090 13680 c0 -5 5 -10 11 -10 5 0 7 5 4 10 -3 6 -8 10 -11 10 -2
0 -4 -4 -4 -10z"/>
<path d="M35120 13652 c0 -12 68 -37 77 -28 3 3 -8 8 -23 12 -16 4 -35 11 -41
17 -9 6 -13 6 -13 -1z"/>
<path d="M35305 13650 c-3 -5 -1 -10 4 -10 6 0 11 5 11 10 0 6 -2 10 -4 10 -3
0 -8 -4 -11 -10z"/>
<path d="M35686 13625 c-4 -15 -5 -30 -1 -33 3 -3 5 2 5 11 0 8 6 17 13 20 9
3 9 8 1 16 -9 10 -13 6 -18 -14z"/>
<path d="M35238 13603 c6 -2 18 -2 25 0 6 3 1 5 -13 5 -14 0 -19 -2 -12 -5z"/>
<path d="M35168 13593 c6 -2 18 -2 25 0 6 3 1 5 -13 5 -14 0 -19 -2 -12 -5z"/>
<path d="M17033 13538 c-169 -219 -476 -537 -607 -627 -12 -8 -23 -18 -26 -21
-6 -7 -136 -103 -190 -141 -41 -28 -190 -119 -195 -119 -2 0 -30 -15 -62 -34
-32 -18 -69 -37 -83 -41 -14 -4 -27 -11 -30 -15 -3 -3 -23 -13 -45 -22 -38
-15 -41 -18 -56 -84 -54 -227 -52 -521 6 -873 9 -52 18 -98 21 -103 3 -4 7
-18 9 -31 18 -98 119 -405 165 -505 11 -24 27 -60 36 -81 17 -42 105 -217 154
-305 34 -61 60 -102 105 -168 l25 -37 53 32 c28 18 54 35 55 40 2 4 8 7 14 7
5 0 24 10 41 23 18 12 39 27 48 32 19 11 221 166 229 174 3 3 42 39 87 79 292
259 504 560 605 860 59 176 71 278 65 527 -3 116 -11 239 -17 275 -21 130 -82
398 -114 505 -19 61 -38 126 -44 145 -26 89 -148 422 -177 486 -8 17 -18 41
-23 54 -8 21 -11 19 -49 -32z"/>
<path d="M35498 13473 c7 -3 16 -2 19 1 4 3 -2 6 -13 5 -11 0 -14 -3 -6 -6z"/>
<path d="M35398 13453 c7 -3 16 -2 19 1 4 3 -2 6 -13 5 -11 0 -14 -3 -6 -6z"/>
<path d="M35562 13400 c7 -11 17 -20 22 -20 5 0 1 9 -9 20 -10 11 -20 20 -22
20 -2 0 2 -9 9 -20z"/>
<path d="M35294 13345 c-3 -8 -4 -20 -2 -27 3 -7 7 -1 10 15 6 29 1 36 -8 12z"/>
<path d="M35847 13348 c6 -7 13 -20 16 -28 4 -10 6 -8 6 6 1 12 -6 25 -15 28
-13 5 -14 3 -7 -6z"/>
<path d="M35610 13338 c0 -7 5 -20 10 -28 8 -12 10 -9 10 13 0 15 -4 27 -10
27 -5 0 -10 -6 -10 -12z"/>
<path d="M39246 13311 c-4 -7 -5 -15 -2 -18 9 -9 19 4 14 18 -4 11 -6 11 -12
0z"/>
<path d="M35290 13274 c0 -14 4 -23 9 -20 5 3 7 15 4 26 -7 28 -13 25 -13 -6z"/>
<path d="M35640 13269 c0 -5 5 -7 10 -4 6 3 10 8 10 11 0 2 -4 4 -10 4 -5 0
-10 -5 -10 -11z"/>
<path d="M34863 13203 c-1 -10 -18 -65 -38 -123 -84 -239 -158 -553 -185 -785
-18 -150 -16 -412 5 -520 63 -336 260 -674 561 -965 112 -107 219 -203 257
-229 12 -8 24 -17 27 -21 18 -21 208 -150 299 -203 l45 -26 38 62 c21 34 43
69 48 77 54 85 107 188 190 365 84 181 158 398 210 615 15 63 22 115 15 108
-4 -4 -16 2 -28 13 -11 10 -31 19 -44 19 -13 0 -23 6 -23 13 0 7 -25 27 -55
45 -30 18 -55 37 -55 42 0 5 -15 16 -33 25 -18 8 -47 28 -64 43 -66 57 -85 72
-93 72 -5 0 -22 12 -38 28 -16 15 -50 45 -77 67 -56 47 -230 222 -295 296 -25
29 -55 63 -67 76 -13 13 -23 25 -23 27 0 11 -56 66 -67 66 -7 0 -13 7 -13 15
0 16 -71 121 -95 140 -6 6 -19 25 -29 43 -9 17 -20 32 -24 32 -4 0 -18 20 -32
45 -14 25 -28 45 -32 45 -5 0 -8 7 -8 15 0 8 -4 15 -10 15 -5 0 -10 6 -10 13
0 7 -7 22 -15 32 -35 45 -112 173 -212 352 -27 50 -28 54 -7 46 14 -5 13 -3
-2 15 -10 12 -19 22 -19 22 0 0 -1 -8 -2 -17z"/>
<path d="M35706 13155 c4 -8 8 -15 10 -15 2 0 4 7 4 15 0 8 -4 15 -10 15 -5 0
-7 -7 -4 -15z"/>
<path d="M35360 13120 c0 -5 5 -10 11 -10 5 0 7 5 4 10 -3 6 -8 10 -11 10 -2
0 -4 -4 -4 -10z"/>
<path d="M35390 13071 c0 -5 5 -13 10 -16 6 -3 10 -2 10 4 0 5 -4 13 -10 16
-5 3 -10 2 -10 -4z"/>
<path d="M36100 13040 c0 -5 5 -10 11 -10 5 0 7 5 4 10 -3 6 -8 10 -11 10 -2
0 -4 -4 -4 -10z"/>
<path d="M35822 13014 c-7 -8 -10 -19 -6 -26 5 -7 10 -3 16 12 10 28 7 33 -10
14z"/>
<path d="M35450 12980 c6 -11 13 -20 16 -20 2 0 0 9 -6 20 -6 11 -13 20 -16
20 -2 0 0 -9 6 -20z"/>
<path d="M35878 12943 c7 -3 16 -2 19 1 4 3 -2 6 -13 5 -11 0 -14 -3 -6 -6z"/>
<path d="M40090 12940 c-13 -8 -12 -10 3 -10 9 0 17 5 17 10 0 12 -1 12 -20 0z"/>
<path d="M35870 12910 c0 -5 5 -10 11 -10 5 0 7 5 4 10 -3 6 -8 10 -11 10 -2
0 -4 -4 -4 -10z"/>
<path d="M38835 12880 c-3 -5 1 -10 9 -10 9 0 16 5 16 10 0 6 -4 10 -9 10 -6
0 -13 -4 -16 -10z"/>
<path d="M40055 12830 c-10 -11 -16 -22 -14 -24 2 -2 12 7 22 20 22 29 17 32
-8 4z"/>
<path d="M35940 12823 c1 -5 8 -19 16 -33 8 -14 13 -17 10 -7 -3 10 -6 25 -6
33 0 8 -4 14 -10 14 -5 0 -10 -3 -10 -7z"/>
<path d="M35185 12780 c3 -5 8 -10 11 -10 2 0 4 5 4 10 0 6 -5 10 -11 10 -5 0
-7 -4 -4 -10z"/>
<path d="M40023 12778 c-20 -26 -26 -41 -15 -34 12 7 36 46 29 46 -3 0 -9 -6
-14 -12z"/>
<path d="M5090 12753 c-107 -11 -335 -46 -349 -53 -9 -4 -59 -17 -111 -29
-123 -28 -315 -94 -315 -109 0 -6 6 -19 12 -29 7 -10 27 -40 45 -68 18 -27 35
-52 38 -55 4 -3 21 -27 39 -53 37 -55 177 -232 230 -292 61 -68 234 -239 279
-275 236 -189 474 -274 767 -275 154 0 218 10 360 56 53 17 222 95 235 109 3
3 37 26 75 52 69 47 165 133 165 150 0 4 -4 8 -10 8 -5 0 -10 5 -10 11 0 10
-57 98 -71 109 -4 3 -15 19 -25 36 -100 165 -417 474 -565 550 -19 9 -36 20
-39 23 -7 8 -106 56 -155 75 -136 51 -410 79 -595 59z"/>
<path d="M35167 12753 c-3 -5 -1 -17 4 -28 7 -17 8 -17 8 8 1 27 -4 34 -12 20z"/>
<path d="M46659 12750 c-118 -15 -221 -42 -314 -83 -49 -22 -92 -43 -95 -46
-3 -3 -17 -12 -33 -20 -56 -29 -214 -155 -300 -240 -84 -82 -225 -245 -277
-321 -13 -19 -27 -37 -30 -40 -11 -10 -47 -66 -64 -98 l-17 -32 48 -46 c152
-143 395 -262 612 -298 295 -49 629 33 876 214 79 59 245 211 305 281 30 35
57 66 60 69 14 11 140 171 194 244 81 110 157 228 151 234 -15 15 -163 63
-343 111 -224 60 -593 94 -773 71z m-1065 -826 c3 -8 2 -12 -4 -9 -6 3 -10 10
-10 16 0 14 7 11 14 -7z"/>
<path d="M39956 12684 c-10 -25 1 -29 14 -5 6 12 7 21 1 21 -5 0 -12 -7 -15
-16z"/>
<path d="M8044 12562 c-60 -70 -113 -132 -119 -138 -5 -6 -41 -52 -79 -102
-39 -51 -73 -92 -78 -92 -4 0 -8 -5 -8 -10 0 -6 -18 -36 -39 -68 -104 -153
-198 -378 -235 -562 -56 -278 -32 -509 75 -724 23 -47 46 -86 50 -86 4 0 11
-10 15 -22 10 -33 194 -208 251 -240 l49 -27 71 55 c131 98 267 246 359 389
141 219 225 493 224 728 -1 208 -86 470 -237 732 -50 88 -106 178 -114 185 -3
3 -22 28 -41 57 l-35 52 -109 -127z"/>
<path d="M43881 12610 c-28 -39 -51 -73 -51 -76 0 -3 -10 -20 -22 -37 -13 -18
-28 -41 -34 -52 -6 -11 -25 -45 -43 -75 -32 -57 -101 -196 -101 -206 0 -3 -9
-25 -20 -49 -11 -25 -37 -100 -56 -167 -43 -145 -55 -301 -34 -439 28 -198
118 -431 227 -596 63 -94 190 -240 261 -300 31 -27 61 -54 65 -60 4 -7 13 -13
18 -13 6 0 25 -11 43 -25 l33 -25 64 41 c35 23 96 74 134 113 158 160 240 340
265 578 16 157 -22 407 -88 583 -38 99 -64 160 -70 165 -4 3 -18 28 -32 55
-44 89 -200 314 -285 410 -15 17 -55 63 -89 103 -70 85 -123 142 -129 142 -3
0 -28 -32 -56 -70z"/>
<path d="M39923 12648 c1 -15 6 -23 11 -18 4 4 4 16 -2 26 -9 16 -10 14 -9 -8z"/>
<path d="M39850 12619 c0 -5 5 -7 10 -4 6 3 10 8 10 11 0 2 -4 4 -10 4 -5 0
-10 -5 -10 -11z"/>
<path d="M35945 12600 c-3 -5 -1 -10 4 -10 6 0 11 5 11 10 0 6 -2 10 -4 10 -3
0 -8 -4 -11 -10z"/>
<path d="M39887 12604 c-4 -4 -7 -14 -7 -23 0 -11 3 -12 11 -4 6 6 10 16 7 23
-2 6 -7 8 -11 4z"/>
<path d="M36828 12573 c7 -3 16 -2 19 1 4 3 -2 6 -13 5 -11 0 -14 -3 -6 -6z"/>
<path d="M35920 12560 c0 -5 5 -10 11 -10 5 0 7 5 4 10 -3 6 -8 10 -11 10 -2
0 -4 -4 -4 -10z"/>
<path d="M38218 12553 c7 -3 16 -2 19 1 4 3 -2 6 -13 5 -11 0 -14 -3 -6 -6z"/>
<path d="M39843 12522 c0 -13 0 -22 1 -20 0 2 9 12 18 23 16 20 16 21 0 21
-11 0 -18 -9 -19 -24z"/>
<path d="M37048 12503 c7 -3 16 -2 19 1 4 3 -2 6 -13 5 -11 0 -14 -3 -6 -6z"/>
<path d="M12720 12470 c-287 -19 -401 -24 -507 -24 -62 1 -113 -1 -113 -3 0
-24 132 -252 245 -422 177 -268 331 -460 519 -646 473 -469 907 -638 1316
-511 113 35 113 35 144 138 16 51 32 102 37 113 55 137 78 394 49 545 -21 109
-32 155 -40 180 -5 14 -18 59 -30 100 -12 41 -25 84 -30 95 -5 11 -15 40 -21
65 -12 45 -44 90 -62 90 -6 0 -24 10 -41 23 -88 65 -328 161 -506 202 -180 40
-331 56 -585 60 -137 1 -306 -1 -375 -5z"/>
<path d="M15484 12404 c-32 -12 -43 -21 -47 -42 -3 -15 -5 -28 -4 -28 1 -1 24
18 52 42 27 24 47 44 45 43 -3 0 -24 -7 -46 -15z"/>
<path d="M39441 12104 c0 -11 3 -14 6 -6 3 7 2 16 -1 19 -3 4 -6 -2 -5 -13z"/>
<path d="M36375 11580 c3 -5 8 -10 11 -10 2 0 4 5 4 10 0 6 -5 10 -11 10 -5 0
-7 -4 -4 -10z"/>
<path d="M38720 11576 c0 -9 5 -16 10 -16 6 0 10 4 10 9 0 6 -4 13 -10 16 -5
3 -10 -1 -10 -9z"/>
<path d="M15200 11488 c0 -89 18 -207 50 -318 52 -182 60 -199 162 -334 55
-72 109 -144 121 -160 141 -189 136 -185 372 -283 72 -29 145 -60 163 -68 18
-8 37 -15 43 -15 6 0 31 -9 56 -21 25 -11 47 -19 48 -17 2 2 -13 21 -33 43
-31 33 -102 115 -256 295 -11 14 -37 45 -56 70 -36 46 -67 84 -85 104 -6 6
-33 40 -60 76 -27 36 -52 67 -56 70 -10 8 -268 364 -358 495 -117 169 -111
166 -111 63z"/>
<path d="M36360 11550 c0 -5 5 -10 11 -10 5 0 7 5 4 10 -3 6 -8 10 -11 10 -2
0 -4 -4 -4 -10z"/>
<path d="M36450 11495 c14 -8 30 -14 35 -14 6 0 -1 6 -15 14 -14 8 -29 14 -35
14 -5 0 1 -6 15 -14z"/>
<path d="M36498 11503 c7 -3 16 -2 19 1 4 3 -2 6 -13 5 -11 0 -14 -3 -6 -6z"/>
<path d="M36540 11490 c0 -5 5 -10 10 -10 6 0 10 5 10 10 0 6 -4 10 -10 10 -5
0 -10 -4 -10 -10z"/>
<path d="M36520 11465 c14 -8 30 -14 35 -14 6 0 -1 6 -15 14 -14 8 -29 14 -35
14 -5 0 1 -6 15 -14z"/>
<path d="M36645 11405 c28 -13 57 -24 65 -24 21 0 -52 35 -87 42 -18 4 -10 -2
22 -18z"/>
<path d="M38428 11423 c7 -3 16 -2 19 1 4 3 -2 6 -13 5 -11 0 -14 -3 -6 -6z"/>
<path d="M8711 11247 c-128 -245 -152 -293 -183 -372 -17 -44 -34 -82 -38 -85
-7 -5 -31 -89 -51 -175 -16 -72 -39 -228 -39 -268 0 -53 30 -243 50 -312 5
-16 14 -50 21 -75 7 -25 15 -49 19 -55 4 -5 19 -39 34 -75 25 -58 111 -207
126 -220 3 -3 13 -15 21 -27 26 -37 112 -135 148 -167 19 -17 42 -38 50 -46
39 -37 174 -118 215 -130 45 -12 47 -12 67 14 11 14 26 32 33 39 57 59 168
263 218 402 109 303 116 636 17 894 -89 235 -337 536 -630 768 -12 10 -24 -7
-78 -110z"/>
<path d="M43294 11352 c-10 -9 -36 -30 -57 -45 -67 -50 -274 -260 -342 -347
-37 -47 -73 -93 -81 -103 -31 -39 -114 -192 -143 -265 -98 -247 -92 -605 15
-897 24 -64 112 -253 124 -265 3 -3 26 -36 53 -75 79 -116 91 -127 134 -119
56 10 196 108 293 204 83 83 150 158 150 168 0 3 11 19 24 36 38 50 124 230
151 314 37 118 49 176 65 307 26 213 -57 525 -222 830 -12 22 -48 92 -81 155
-32 63 -60 116 -61 117 -1 2 -11 -5 -22 -15z"/>
<path d="M36868 11343 c6 -2 18 -2 25 0 6 3 1 5 -13 5 -14 0 -19 -2 -12 -5z"/>
<path d="M5901 11284 c-100 -14 -355 -80 -416 -109 -16 -7 -55 -23 -85 -35
-74 -29 -264 -124 -322 -161 -28 -18 -45 -36 -42 -43 7 -18 268 -271 358 -348
39 -34 85 -72 101 -87 37 -32 169 -131 210 -157 17 -10 32 -21 35 -24 8 -10
180 -114 235 -143 309 -161 570 -184 889 -76 120 41 277 113 371 171 105 65
187 122 225 157 l40 36 -53 70 c-30 39 -59 69 -66 67 -7 -1 -11 4 -9 12 4 16
-193 213 -274 275 -32 24 -58 47 -58 52 0 5 -5 9 -10 9 -6 0 -34 17 -63 38
-164 118 -352 205 -592 271 -67 19 -236 41 -305 40 -36 -1 -112 -7 -169 -15z"/>
<path d="M45860 11284 c-113 -14 -132 -19 -284 -66 -179 -55 -415 -188 -586
-331 -193 -161 -423 -416 -394 -435 6 -4 38 -28 72 -55 67 -52 216 -147 231
-147 5 0 11 -3 13 -8 9 -20 256 -127 373 -161 189 -55 449 -56 590 -4 138 52
204 79 237 100 21 13 40 23 43 23 7 0 182 108 215 132 76 56 266 203 276 212
6 6 40 36 75 66 109 94 341 328 335 339 -4 5 -19 16 -34 24 -15 7 -45 24 -67
37 -54 31 -211 110 -218 110 -4 0 -30 11 -59 24 -79 35 -125 52 -208 76 -41
11 -96 28 -122 36 -52 16 -281 45 -343 43 -22 -1 -87 -7 -145 -15z"/>
<path d="M37280 11260 c0 -5 7 -10 16 -10 8 0 12 5 9 10 -3 6 -10 10 -16 10
-5 0 -9 -4 -9 -10z"/>
<path d="M37368 11263 c7 -3 16 -2 19 1 4 3 -2 6 -13 5 -11 0 -14 -3 -6 -6z"/>
<path d="M37760 11250 c0 -13 11 -13 30 0 12 8 11 10 -7 10 -13 0 -23 -4 -23
-10z"/>
<path d="M14030 10719 c-74 -8 -175 -26 -320 -56 -41 -9 -102 -21 -135 -28
-33 -7 -73 -18 -89 -24 -16 -7 -64 -21 -105 -32 -70 -18 -309 -99 -356 -120
-11 -4 -58 -24 -105 -43 -143 -57 -259 -111 -395 -181 -169 -87 -371 -203
-403 -230 l-24 -21 57 -46 c61 -51 51 -50 140 -13 89 38 388 145 403 145 10 0
22 4 27 8 6 5 55 23 110 41 55 18 109 36 120 41 11 5 65 24 120 43 95 33 302
108 335 120 8 3 94 36 190 72 96 37 198 77 225 89 28 13 77 34 110 47 33 13
62 26 65 29 3 4 21 12 40 20 77 30 148 70 162 92 34 53 32 56 -35 55 -34 0
-96 -4 -137 -8z"/>
<path d="M42170 10358 c-185 -143 -281 -228 -440 -387 -207 -208 -325 -356
-408 -513 -87 -166 -114 -263 -120 -436 -6 -194 22 -356 97 -560 65 -175 181
-402 206 -402 8 0 46 20 85 45 39 25 74 45 79 45 5 0 11 4 13 8 2 5 26 23 53
42 28 19 55 39 61 45 7 5 31 26 55 45 87 70 253 237 312 315 34 44 64 82 67
85 13 10 117 187 135 230 11 25 22 47 26 50 14 12 89 243 103 320 31 169 16
501 -30 670 -39 141 -67 236 -72 245 -7 11 -47 121 -63 173 -5 17 -14 32 -19
32 -6 0 -10 7 -10 15 0 28 -25 15 -130 -67z"/>
<path d="M39785 9301 c-126 -58 -313 -158 -419 -223 -38 -23 -57 -28 -79 -24
-17 3 -27 3 -24 -1 4 -4 29 -10 55 -14 26 -4 79 -18 117 -32 39 -13 97 -32
130 -42 33 -9 74 -23 90 -30 17 -7 46 -16 65 -20 19 -4 45 -13 57 -21 13 -8
50 -17 83 -21 46 -4 60 -10 60 -22 0 -14 2 -14 10 -1 8 13 10 13 10 -1 0 -22
26 -43 41 -33 9 5 6 10 -8 15 -18 6 -22 20 -28 96 -4 48 -9 102 -11 118 -2 17
-6 53 -9 80 -3 28 -10 59 -15 70 -4 11 -14 48 -20 83 -7 34 -15 62 -19 61 -3
0 -42 -17 -86 -38z"/>
<path d="M36545 9310 c3 -5 8 -10 11 -10 2 0 4 5 4 10 0 6 -5 10 -11 10 -5 0
-7 -4 -4 -10z"/>
<path d="M38570 9285 c7 -8 24 -14 39 -14 l26 2 -27 4 c-16 2 -28 9 -28 14 0
5 -5 9 -11 9 -8 0 -8 -5 1 -15z"/>
<path d="M36380 9280 c-11 -7 -5 -8 20 -4 43 8 51 14 19 14 -13 0 -31 -5 -39
-10z"/>
<path d="M36528 9273 c6 -2 18 -2 25 0 6 3 1 5 -13 5 -14 0 -19 -2 -12 -5z"/>
<path d="M36275 9235 c-23 -10 -26 -13 -10 -14 11 0 29 6 39 14 24 19 11 19
-29 0z"/>
<path d="M36305 9210 c3 -5 8 -10 11 -10 2 0 4 5 4 10 0 6 -5 10 -11 10 -5 0
-7 -4 -4 -10z"/>
<path d="M36170 9200 l-25 -8 27 -1 c15 -1 30 4 33 9 7 11 0 11 -35 0z"/>
<path d="M38863 9193 c9 -2 23 -2 30 0 6 3 -1 5 -18 5 -16 0 -22 -2 -12 -5z"/>
<path d="M36038 9151 c-53 -19 -70 -31 -45 -31 10 0 34 9 54 20 50 26 77 26
43 0 l-25 -20 31 12 c20 7 30 17 27 25 -7 17 -27 15 -85 -6z"/>
<path d="M38965 9160 c3 -5 14 -10 23 -10 15 0 15 2 2 10 -20 13 -33 13 -25 0z"/>
<path d="M38914 9136 c11 -9 24 -16 30 -16 12 0 7 5 -24 19 -24 11 -24 11 -6
-3z"/>
<path d="M39000 9133 c-13 -15 -12 -16 4 -10 10 4 24 7 32 7 9 0 12 5 9 10 -9
15 -28 12 -45 -7z"/>
<path d="M35938 9113 c6 -2 18 -2 25 0 6 3 1 5 -13 5 -14 0 -19 -2 -12 -5z"/>
<path d="M35885 9095 c-25 -12 -26 -14 -9 -15 12 0 27 7 34 15 15 18 14 18
-25 0z"/>
<path d="M39145 9090 c3 -5 17 -10 30 -10 13 0 27 -4 30 -10 3 -5 14 -10 23
-10 12 1 10 5 -8 14 -36 19 -83 29 -75 16z"/>
<path d="M36722 9050 c0 -14 2 -19 5 -12 2 6 2 18 0 25 -3 6 -5 1 -5 -13z"/>
<path d="M35750 9050 c-18 -12 -2 -12 25 0 13 6 15 9 5 9 -8 0 -22 -4 -30 -9z"/>
<path d="M35830 9050 c-12 -8 -10 -10 8 -10 13 0 20 4 17 10 -7 12 -6 12 -25
0z"/>
<path d="M36755 9040 c-3 -5 -1 -10 4 -10 6 0 11 5 11 10 0 6 -2 10 -4 10 -3
0 -8 -4 -11 -10z"/>
<path d="M39209 9037 c5 -5 19 -7 32 -5 20 3 19 5 -9 9 -20 3 -29 2 -23 -4z"/>
<path d="M35778 9033 c7 -3 16 -2 19 1 4 3 -2 6 -13 5 -11 0 -14 -3 -6 -6z"/>
<path d="M35641 9009 c-13 -5 -22 -12 -19 -14 6 -6 58 12 58 20 0 7 -11 5 -39
-6z"/>
<path d="M36800 8990 c0 -12 29 -45 35 -39 2 2 -5 15 -16 28 -10 13 -19 18
-19 11z"/>
<path d="M35590 8960 c8 -5 20 -10 25 -10 6 0 3 5 -5 10 -8 5 -19 10 -25 10
-5 0 -3 -5 5 -10z"/>
<path d="M39368 8953 c7 -3 16 -2 19 1 4 3 -2 6 -13 5 -11 0 -14 -3 -6 -6z"/>
<path d="M35405 8920 c28 -12 37 -12 30 0 -3 6 -16 10 -28 9 -21 0 -21 -1 -2
-9z"/>
<path d="M35300 8894 c-61 -23 -62 -24 -21 -18 24 4 58 15 75 25 40 24 26 23
-54 -7z"/>
<path d="M39600 8909 c0 -5 5 -7 10 -4 6 3 10 8 10 11 0 2 -4 4 -10 4 -5 0
-10 -5 -10 -11z"/>
<path d="M35350 8880 c-8 -5 -10 -10 -5 -10 6 0 17 5 25 10 8 5 11 10 5 10 -5
0 -17 -5 -25 -10z"/>
<path d="M39608 8873 c6 -2 18 -2 25 0 6 3 1 5 -13 5 -14 0 -19 -2 -12 -5z"/>
<path d="M35118 8838 c-16 -5 -28 -14 -28 -20 0 -6 6 -6 15 2 8 6 33 13 55 13
22 1 40 5 40 10 0 10 -49 7 -82 -5z"/>
<path d="M39997 8806 c-4 -10 1 -12 14 -9 23 6 24 9 5 16 -8 3 -17 0 -19 -7z"/>
<path d="M35110 8800 c0 -5 7 -7 15 -4 8 4 15 8 15 10 0 2 -7 4 -15 4 -8 0
-15 -4 -15 -10z"/>
<path d="M40048 8793 c6 -2 18 -2 25 0 6 3 1 5 -13 5 -14 0 -19 -2 -12 -5z"/>
<path d="M40170 8750 c25 -10 52 -19 60 -19 8 0 -7 9 -35 19 -64 25 -85 25
-25 0z"/>
<path d="M40107 8749 c7 -7 15 -10 18 -7 3 3 -2 9 -12 12 -14 6 -15 5 -6 -5z"/>
<path d="M40154 8725 c8 -8 18 -15 22 -15 3 0 1 7 -6 15 -7 8 -17 15 -22 15
-5 0 -3 -7 6 -15z"/>
<path d="M40580 8511 c0 -5 5 -13 10 -16 6 -3 10 -2 10 4 0 5 -4 13 -10 16 -5
3 -10 2 -10 -4z"/>
<path d="M34903 8370 c-41 -17 -55 -69 -26 -98 15 -16 206 -17 2707 -22 1824
-3 2696 -2 2710 5 15 8 22 22 24 52 6 80 281 73 -2718 72 -1516 0 -2684 -4
-2697 -9z"/>
<path d="M34832 8330 c0 -14 2 -19 5 -12 2 6 2 18 0 25 -3 6 -5 1 -5 -13z"/>
</g>
</svg>
